
<svg width="22px" height="20px" viewBox="0 0 22 20" version="1.1" xmlns="http://www.w3.org/2000/svg" xmlns:xlink="http://www.w3.org/1999/xlink">
    <g fill="#051D39" stroke="none" stroke-width="1" fill-rule="evenodd">
        <g transform="translate(-121.000000, -988.000000)">
            <g transform="translate(120.000000, 986.000000)">
                <path d="M13.7557911,3.21895043 L22.3867068,19.0422957 C22.9156322,20.0119924 22.5583166,21.2268657 21.5886199,21.7557911 C21.2948427,21.9160333 20.9655536,22 20.6309156,22 L3.36908438,22 C2.26451488,22 1.36908438,21.1045695 1.36908438,20 C1.36908438,19.665362 1.45305112,19.3360729 1.61329323,19.0422957 L10.2442089,3.21895043 C10.7731343,2.24925376 11.9880076,1.89193809 12.9577043,2.42086355 C13.2948373,2.6047543 13.5719004,2.8818174 13.7557911,3.21895043 Z M12.0952381,16.5 C11.5429533,16.5 11.0952381,16.9477153 11.0952381,17.5 C11.0952381,18.0522847 11.5429533,18.5 12.0952381,18.5 C12.6475228,18.5 13.0952381,18.0522847 13.0952381,17.5 C13.0952381,16.9477153 12.6475228,16.5 12.0952381,16.5 Z M12.0952381,9 C11.5429533,9 11.0952381,9.44771525 11.0952381,10 L11.0952381,14 C11.0952381,14.5522847 11.5429533,15 12.0952381,15 C12.6475228,15 13.0952381,14.5522847 13.0952381,14 L13.0952381,10 C13.0952381,9.44771525 12.6475228,9 12.0952381,9 Z"></path>
            </g>
        </g>
    </g>
</svg>