
<svg width="18px" height="18px" viewBox="0 0 18 18" version="1.1" xmlns="http://www.w3.org/2000/svg" xmlns:xlink="http://www.w3.org/1999/xlink">
    <g fill="#051D39" stroke="none" stroke-width="1" fill-rule="evenodd">
        <g transform="translate(-750.000000, -989.000000)">
            <g transform="translate(747.000000, 986.000000)">
                <path d="M6.91421356,18.5 L9.5,18.5 C10.0522847,18.5 10.5,18.9477153 10.5,19.5 C10.5,20.0522847 10.0522847,20.5 9.5,20.5 L4.5,20.5 C3.94771525,20.5 3.5,20.0522847 3.5,19.5 L3.5,14.5 C3.5,13.9477153 3.94771525,13.5 4.5,13.5 C5.05228475,13.5 5.5,13.9477153 5.5,14.5 L5.5,17.0857864 L8.79289322,13.7928932 C9.18341751,13.4023689 9.81658249,13.4023689 10.2071068,13.7928932 C10.5976311,14.1834175 10.5976311,14.8165825 10.2071068,15.2071068 L6.91421356,18.5 Z M17.0857864,5.5 L14.5,5.5 C13.9477153,5.5 13.5,5.05228475 13.5,4.5 C13.5,3.94771525 13.9477153,3.5 14.5,3.5 L19.5,3.5 C20.0522847,3.5 20.5,3.94771525 20.5,4.5 L20.5,9.5 C20.5,10.0522847 20.0522847,10.5 19.5,10.5 C18.9477153,10.5 18.5,10.0522847 18.5,9.5 L18.5,6.91421356 L15.2071068,10.2071068 C14.8165825,10.5976311 14.1834175,10.5976311 13.7928932,10.2071068 C13.4023689,9.81658249 13.4023689,9.18341751 13.7928932,8.79289322 L17.0857864,5.5 Z" opacity="0.5"></path>
                <path d="M18.5,17.0857864 L18.5,14.5 C18.5,13.9477153 18.9477153,13.5 19.5,13.5 C20.0522847,13.5 20.5,13.9477153 20.5,14.5 L20.5,19.5 C20.5,20.0522847 20.0522847,20.5 19.5,20.5 L14.5,20.5 C13.9477153,20.5 13.5,20.0522847 13.5,19.5 C13.5,18.9477153 13.9477153,18.5 14.5,18.5 L17.0857864,18.5 L13.7928932,15.2071068 C13.4023689,14.8165825 13.4023689,14.1834175 13.7928932,13.7928932 C14.1834175,13.4023689 14.8165825,13.4023689 15.2071068,13.7928932 L18.5,17.0857864 Z M5.5,6.91421356 L5.5,9.5 C5.5,10.0522847 5.05228475,10.5 4.5,10.5 C3.94771525,10.5 3.5,10.0522847 3.5,9.5 L3.5,4.5 C3.5,3.94771525 3.94771525,3.5 4.5,3.5 L9.5,3.5 C10.0522847,3.5 10.5,3.94771525 10.5,4.5 C10.5,5.05228475 10.0522847,5.5 9.5,5.5 L6.91421356,5.5 L10.2071068,8.79289322 C10.5976311,9.18341751 10.5976311,9.81658249 10.2071068,10.2071068 C9.81658249,10.5976311 9.18341751,10.5976311 8.79289322,10.2071068 L5.5,6.91421356 Z"></path>
            </g>
        </g>
    </g>
</svg>