
<svg width="12px" height="18px" viewBox="0 0 12 18" version="1.1" xmlns="http://www.w3.org/2000/svg" xmlns:xlink="http://www.w3.org/1999/xlink">
    <g fill="#051D39" stroke="none" stroke-width="1" fill-rule="evenodd">
        <g transform="translate(-196.000000, -1032.000000)">
            <g transform="translate(190.000000, 1029.000000)">
                <path d="M12,5.41421356 L7.70710678,9.70710678 C7.31658249,10.0976311 6.68341751,10.0976311 6.29289322,9.70710678 C5.90236893,9.31658249 5.90236893,8.68341751 6.29289322,8.29289322 L11.2928932,3.29289322 C11.6834175,2.90236893 12.3165825,2.90236893 12.7071068,3.29289322 L17.7071068,8.29289322 C18.0976311,8.68341751 18.0976311,9.31658249 17.7071068,9.70710678 C17.3165825,10.0976311 16.6834175,10.0976311 16.2928932,9.70710678 L12,5.41421356 Z"></path>
                <path d="M12,16.4142136 L7.70710678,20.7071068 C7.31658249,21.0976311 6.68341751,21.0976311 6.29289322,20.7071068 C5.90236893,20.3165825 5.90236893,19.6834175 6.29289322,19.2928932 L11.2928932,14.2928932 C11.6834175,13.9023689 12.3165825,13.9023689 12.7071068,14.2928932 L17.7071068,19.2928932 C18.0976311,19.6834175 18.0976311,20.3165825 17.7071068,20.7071068 C17.3165825,21.0976311 16.6834175,21.0976311 16.2928932,20.7071068 L12,16.4142136 Z" id="🎨-Icon-Color-Copy" transform="translate(12.000000, 17.500000) rotate(-180.000000) translate(-12.000000, -17.500000) "></path>
            </g>
        </g>
    </g>
</svg>