
<svg width="16px" height="16px" viewBox="0 0 16 16" version="1.1" xmlns="http://www.w3.org/2000/svg" xmlns:xlink="http://www.w3.org/1999/xlink">
    <g fill="#051D39" stroke="none" stroke-width="1" fill-rule="evenodd">
        <g transform="translate(-450.000000, -1033.000000)">
            <g transform="translate(446.000000, 1029.000000)">
                <g transform="translate(4.000000, 4.000000)">
                    <path d="M11.7,0.3 C11.5,0.1 11.3,0 11,0 L10,0 L10,3 C10,3.6 9.6,4 9,4 L4,4 C3.4,4 3,3.6 3,3 L3,0 L1,0 C0.4,0 0,0.4 0,1 L0,15 C0,15.6 0.4,16 1,16 L15,16 C15.6,16 16,15.6 16,15 L16,5 C16,4.7 15.9,4.5 15.7,4.3 L11.7,0.3 Z M13,14 L3,14 L3,11 C3,10.4 3.4,10 4,10 L12,10 C12.6,10 13,10.4 13,11 L13,14 Z"></path>
                    <rect opacity="0.5" x="7" y="0" width="2" height="3"></rect>
                </g>
            </g>
        </g>
    </g>
</svg>