
<svg width="38px" height="38px" viewBox="0 0 38 38" version="1.1" xmlns="http://www.w3.org/2000/svg" xmlns:xlink="http://www.w3.org/1999/xlink">
    <g id="💎-UI-components" stroke="none" stroke-width="1" fill="none" fill-rule="evenodd">
        <g id="New-elements" transform="translate(-133.000000, -1903.000000)">
            <g id="logo-/-new-[border-radius-0]" transform="translate(133.000000, 1903.000000)">
                <g id="logo-new2">
                    <g id="bg">
                        <rect id="Rectangle" fill="#051D39" x="0" y="0" width="38" height="38"></rect>
                        <rect id="Rectangle" fill="#FFFFFF" x="1" y="18.9975415" width="36" height="18"></rect>
                    </g>
                    <g id="un" transform="translate(9.000000, 3.997541)" fill="#FFFFFF">
                        <path d="M9.68114477e-14,-1.91846539e-13 L3.96097561,-1.91846539e-13 L3.96097561,9.01463415 C3.96097561,10.3804878 4.64390244,11.0634146 5.73658537,11.0634146 C6.82926829,11.0634146 7.78536585,10.2439024 7.78536585,9.01463415 L7.78536585,-1.91846539e-13 L9.28780488,-1.91846539e-13 L9.28780488,9.01463415 C9.28780488,10.6536585 8.05853659,12.4292683 4.64390244,12.4292683 C1.50243902,12.4292683 9.68114477e-14,10.6536585 9.68114477e-14,9.01463415 L9.68114477e-14,-1.91846539e-13 Z" id="Fill-4"></path>
                        <polygon id="Fill-6" points="13.1121951 -1.91846539e-13 18.5756098 7.78536585 18.5756098 -1.91846539e-13 20.0780488 -1.91846539e-13 20.0780488 12.4292683 17.0731707 12.4292683 12.2926829 4.50731707 12.2926829 12.4292683 10.7902439 12.4292683 10.7902439 -1.91846539e-13"></polygon>
                    </g>
                    <g id="till" transform="translate(4.000000, 21.997541)" fill="#051D39">
                        <polygon id="Fill-8" points="10.0731707 11.6097561 13.0780488 11.6097561 13.0780488 0 10.0731707 0"></polygon>
                        <polygon id="Fill-10" points="17.7219512 10.107358 17.7219512 4.09756103e-05 14.7170732 4.09756103e-05 14.7170732 11.6097971 22.3658537 11.6097971 22.3658537 10.107358"></polygon>
                        <polygon id="Fill-11" points="26.1902439 10.107358 26.1902439 4.09756103e-05 23.1853659 4.09756103e-05 23.1853659 11.6097971 30.8341463 11.6097971 30.8341463 10.107358"></polygon>
                        <polygon id="Fill-12" points="9.15121951 4.09756103e-05 0 4.09756103e-05 0 1.50248 3.07317073 1.50248 3.07317073 11.6097971 6.07804878 11.6097971 6.07804878 1.50248 9.15121951 1.50248"></polygon>
                    </g>
                </g>
            </g>
        </g>
    </g>
</svg>