
<svg width="16px" height="12px" viewBox="0 0 16 12" version="1.1" xmlns="http://www.w3.org/2000/svg" xmlns:xlink="http://www.w3.org/1999/xlink">
    <g fill="#051D39" stroke="none" stroke-width="1" fill-rule="evenodd">
        <g transform="translate(-309.000000, -1078.000000)">
            <g transform="translate(309.000000, 1078.000000)">
                <g>
                    <path d="M11,1.9811788 L1,2 C0.448,2 0,1.55621595 0,1.0094106 L0,1.0094106 C0,0.46260525 0.448,0.0188211986 1,0.0188211986 L11,0 L11,1.9811788 Z"></path>
                    <path d="M15,7 L5,7 L5,5 L15,5 C15.552,5 16,5.448 16,6 L16,6 C16,6.552 15.552,7 15,7 Z"></path>
                    <path d="M15,2 L13,1.9811788 L13,0 L15,0.0188211986 C15.552,0.0188211986 16,0.46260525 16,1.0094106 L16,1.0094106 C16,1.55720654 15.552,2 15,2 Z" opacity="0.5"></path>
                    <path d="M11,12 L1,12 C0.448,12 0,11.552 0,11 L0,11 C0,10.448 0.448,10 1,10 L11,10 L11,12 Z"></path>
                    <path d="M15,12 L13,12 L13,10 L15,10 C15.552,10 16,10.448 16,11 L16,11 C16,11.552 15.552,12 15,12 Z" opacity="0.5"></path>
                    <path d="M3,7 L1,7 C0.448,7 0,6.552 0,6 L0,6 C0,5.448 0.448,5 1,5 L3,5 L3,7 Z" opacity="0.5"></path>
                </g>
            </g>
        </g>
    </g>
</svg>