
<svg width="16px" height="16px" viewBox="0 0 16 16" version="1.1" xmlns="http://www.w3.org/2000/svg" xmlns:xlink="http://www.w3.org/1999/xlink">
    <g fill="#051D39" stroke="none" stroke-width="1" fill-rule="evenodd">
        <g transform="translate(-159.000000, -990.000000)">
            <g transform="translate(155.000000, 986.000000)">
                <path d="M19,6 L17,6 L17,4 L15,4 L15,6 L13,6 L13,4 L11,4 L11,6 L9,6 L9,4 L7,4 L7,6 L5,6 C4.447,6 4,6.447 4,7 L4,19 C4,19.553 4.447,20 5,20 L19,20 C19.553,20 20,19.553 20,19 L20,7 C20,6.447 19.553,6 19,6 Z M18,18 L6,18 L6,9 L18,9 L18,18 Z"></path>
                <path d="M8,11 L10,11 L10,13 L8,13 L8,11 Z M11,11 L13,11 L13,13 L11,13 L11,11 Z M8,14 L10,14 L10,16 L8,16 L8,14 Z M11,14 L13,14 L13,16 L11,16 L11,14 Z M14,11 L16,11 L16,13 L14,13 L14,11 Z M14,14 L16,14 L16,16 L14,16 L14,14 Z" opacity="0.5"></path>
            </g>
        </g>
    </g>
</svg>