
<svg width="20px" height="17px" viewBox="0 0 20 17" version="1.1" xmlns="http://www.w3.org/2000/svg" xmlns:xlink="http://www.w3.org/1999/xlink">
    <g fill="#051D39" stroke="none" stroke-width="1" fill-rule="evenodd">
        <g transform="translate(-366.000000, -990.000000)">
            <g transform="translate(364.000000, 986.000000)">
                <g transform="translate(2.000000, 4.000000)">
                    <path d="M18.7272727,10 L6,10 L6,7 L18.7272727,7 C19.4298182,7 20,7.672 20,8.5 C20,9.328 19.4298182,10 18.7272727,10 Z M18.7272727,17 L6,17 L6,14 L18.7272727,14 C19.4298182,14 20,14.672 20,15.5 C20,16.328 19.4298182,17 18.7272727,17 Z M18.7272727,3 L6,3 L6,0 L18.7272727,0 C19.4298182,0 20,0.672 20,1.5 C20,2.328 19.4298182,3 18.7272727,3 Z"></path>
                    <path d="M4,10 L1.33333333,10 C0.597333333,10 0,9.328 0,8.5 C0,7.672 0.597333333,7 1.33333333,7 L4,7 L4,10 Z M4,17 L1.33333333,17 C0.597333333,17 0,16.328 0,15.5 C0,14.672 0.597333333,14 1.33333333,14 L4,14 L4,17 Z M4,3 L1.33333333,3 C0.597333333,3 0,2.328 0,1.5 C0,0.672 0.597333333,0 1.33333333,0 L4,0 L4,3 Z" opacity="0.5"></path>
                </g>
            </g>
        </g>
    </g>
</svg>