
<svg width="21px" height="21px" viewBox="0 0 21 21" version="1.1" xmlns="http://www.w3.org/2000/svg" xmlns:xlink="http://www.w3.org/1999/xlink">
    <g fill="#051D39" stroke="none" stroke-width="1" fill-rule="evenodd">
        <g transform="translate(-260.000000, -987.000000)">
            <g transform="translate(259.000000, 986.000000)">
                <g transform="translate(1.000000, 1.000000)">
                    <path d="M11.5,21 C6.26142857,21 2,16.7385714 2,11.5 L4.71428571,11.5 C4.71428571,15.2416429 7.75835714,18.2857143 11.5,18.2857143 C15.2416429,18.2857143 18.2857143,15.2416429 18.2857143,11.5 C18.2857143,7.75835714 15.2416429,4.71428571 11.5,4.71428571 L11.5,2 C16.7385714,2 21,6.26142857 21,11.5 C21,16.7385714 16.7385714,21 11.5,21 Z"></path>
                    <path d="M9,2.57142857 C5.44959184,2.57142857 2.57142857,5.44959184 2.57142857,9 L0,9 C0,4.02942857 4.02942857,0 9,0 L9,2.57142857 Z" opacity="0.5"></path>
                </g>
            </g>
        </g>
    </g>
</svg>