
<svg width="22px" height="20px" viewBox="0 0 22 20" version="1.1" xmlns="http://www.w3.org/2000/svg" xmlns:xlink="http://www.w3.org/1999/xlink">
    <g fill="#051D39" stroke="none" stroke-width="1" fill-rule="evenodd">
        <g transform="translate(-434.000000, -988.000000)">
            <g transform="translate(433.000000, 986.000000)">
                <g transform="translate(1.000000, 2.000000)">
                    <path d="M1.5,20 L20.5,20 C21.3284271,20 22,19.3284271 22,18.5 L22,18.5 C22,17.6715729 21.3284271,17 20.5,17 L1.5,17 C0.671572875,17 -1.01453063e-16,17.6715729 0,18.5 L0,18.5 C1.01453063e-16,19.3284271 0.671572875,20 1.5,20 Z" opacity="0.5"></path>
                    <path d="M9,1.77635684e-15 L13,1.77635684e-15 L13,14 L9,14 L9,1.77635684e-15 Z M2,5 L6,5 L6,14 L2,14 L2,5 Z M16,8 L20,8 L20,14 L16,14 L16,8 Z"></path>
                </g>
            </g>
        </g>
    </g>
</svg>