
<svg width="22px" height="16px" viewBox="0 0 22 16" version="1.1" xmlns="http://www.w3.org/2000/svg" xmlns:xlink="http://www.w3.org/1999/xlink">
    <g fill="#051D39" stroke="none" stroke-width="1" fill-rule="evenodd">
        <g transform="translate(-678.000000, -990.000000)">
            <g transform="translate(677.000000, 986.000000)">
                <path d="M1,12 C2.903,7.43896104 6.5,4 12,4 C17.5,4 21.097,7.43896104 23,12 C21.097,16.561039 17.5,20 12,20 C6.5,20 2.903,16.561039 1,12 Z M9,12 C9,10.3379028 10.3379028,9 12,9 C13.6620972,9 15,10.3379028 15,12 C15,13.6620972 13.6620972,15 12,15 C10.3379028,15 9,13.6620972 9,12 Z M7,12 C7,14.7666667 9.23333333,17 12,17 C14.7666667,17 17,14.7666667 17,12 C17,9.23333333 14.7666667,7 12,7 C9.23333333,7 7,9.23333333 7,12 Z"></path>
            </g>
        </g>
    </g>
</svg>