
<svg width="20px" height="24px" viewBox="0 0 20 24" version="1.1" xmlns="http://www.w3.org/2000/svg" xmlns:xlink="http://www.w3.org/1999/xlink">
    <g fill="#051D39" stroke="none" stroke-width="1" fill-rule="evenodd">
        <g transform="translate(-121.000000, -1225.000000)">
            <g transform="translate(119.000000, 1225.000000)">
                <path d="M21.8553562,19.4819596 C22.2589843,20.1484053 21.7791441,21 21,21 L3,21 C2.22085592,21 1.74101574,20.1484053 2.14464384,19.4819596 C3.33181841,17.5217706 3.97247932,15.2794574 4,13 L4,7.99999999 C4.00000007,3.58172203 7.58172205,1.04308128e-07 12,1.04308128e-07 C16.418278,1.04308129e-07 19.9999999,3.58172203 20,8 L20,12.9938666 C20.0286221,15.2833109 20.6692017,17.523455 21.8553562,19.4819596 Z M18.0000725,13.0120407 L18,13 L18,8.00000001 C18,4.68629155 15.3137085,2.0000001 12,2.0000001 C8.68629154,2.0000001 6.00000005,4.68629155 6,8 L5.99992751,13.0120407 C5.97495419,15.0859714 5.51550893,17.1250455 4.65852404,19 L19.341476,19 C18.4844911,17.1250455 18.0250458,15.0859714 18.0000725,13.0120407 Z"></path>
                <path d="M9.174,22 C9.59978745,23.1951025 10.7313137,23.9931614 12,23.9931614 C13.2686863,23.9931614 14.4002126,23.1951025 14.826,22 L9.174,22 Z"></path>
            </g>
        </g>
    </g>
</svg>