
<svg width="19px" height="16px" viewBox="0 0 19 16" version="1.1" xmlns="http://www.w3.org/2000/svg" xmlns:xlink="http://www.w3.org/1999/xlink">
    <g fill="#051D39" stroke="none" stroke-width="1" fill-rule="evenodd">
        <g transform="translate(-339.000000, -1033.000000)">
            <g transform="translate(336.000000, 1029.000000)">
                <g transform="translate(3.000000, 4.000000)">
                    <path d="M17.1428571,2.28571429 L12.5714286,2.28571429 C11.8857143,2.28571429 11.4285714,2.74285714 11.4285714,3.42857143 C11.4285714,4.11428571 11.8857143,4.57142857 12.5714286,4.57142857 L17.1428571,4.57142857 C17.8285714,4.57142857 18.2857143,4.11428571 18.2857143,3.42857143 C18.2857143,2.74285714 17.8285714,2.28571429 17.1428571,2.28571429 Z" fill-rule="nonzero"></path>
                    <path d="M5.71428571,0 C4.22857143,0 2.97142857,1.02857143 2.51428571,2.28571429 C2.4,2.28571429 2.4,2.28571429 2.28571429,2.28571429 L1.14285714,2.28571429 C0.457142857,2.28571429 0,2.74285714 0,3.42857143 C0,4.11428571 0.457142857,4.57142857 1.14285714,4.57142857 L2.28571429,4.57142857 C2.4,4.57142857 2.4,4.57142857 2.51428571,4.57142857 C2.97142857,5.82857143 4.22857143,6.85714286 5.71428571,6.85714286 C7.65714286,6.85714286 9.14285714,5.37142857 9.14285714,3.42857143 C9.14285714,1.48571429 7.65714286,0 5.71428571,0 Z" fill-rule="nonzero"></path>
                    <path d="M1.14285714,13.7142857 L5.71428571,13.7142857 C6.4,13.7142857 6.85714286,13.2571429 6.85714286,12.5714286 C6.85714286,11.8857143 6.4,11.4285714 5.71428571,11.4285714 L1.14285714,11.4285714 C0.457142857,11.4285714 0,11.8857143 0,12.5714286 C0,13.2571429 0.457142857,13.7142857 1.14285714,13.7142857 Z" opacity="0.5" fill-rule="nonzero"></path>
                    <path d="M17.1428571,11.4285714 L16,11.4285714 C15.8857143,11.4285714 15.8857143,11.4285714 15.7714286,11.4285714 C15.3142857,10.0571429 14.0571429,9.14285714 12.5714286,9.14285714 C10.6285714,9.14285714 9.14285714,10.6285714 9.14285714,12.5714286 C9.14285714,14.5142857 10.6285714,16 12.5714286,16 C14.0571429,16 15.3142857,14.9714286 15.7714286,13.7142857 C15.8857143,13.7142857 15.8857143,13.7142857 16,13.7142857 L17.1428571,13.7142857 C17.8285714,13.7142857 18.2857143,13.2571429 18.2857143,12.5714286 C18.2857143,11.8857143 17.8285714,11.4285714 17.1428571,11.4285714 Z" opacity="0.5" fill-rule="nonzero"></path>
                </g>
            </g>
        </g>
    </g>
</svg>