
<svg width="22px" height="24px" viewBox="0 0 22 24" version="1.1" xmlns="http://www.w3.org/2000/svg" xmlns:xlink="http://www.w3.org/1999/xlink">
    <g fill="#051D39" stroke="none" stroke-width="1" fill-rule="evenodd">
        <g transform="translate(-167.000000, -1225.000000)">
            <g transform="translate(166.000000, 1225.000000)">
                <path d="M21,3 L17,3 C16.4477153,3 16,2.55228475 16,2 C16,1.44771525 16.4477153,1 17,1 L22,1 C22.5522847,1 23,1.44771525 23,2 L23,23 C23,23.5522847 22.5522847,24 22,24 L2,24 C1.44771525,24 1,23.5522847 1,23 L1,2 C1,1.44771525 1.44771525,1 2,1 L7,1 C7.55228475,1 8,1.44771525 8,2 C8,2.55228475 7.55228475,3 7,3 L3,3 L3,22 L21,22 L21,3 Z"></path>
                <path d="M14.2928932,12.2928932 C14.6834175,11.9023689 15.3165825,11.9023689 15.7071068,12.2928932 C16.0976311,12.6834175 16.0976311,13.3165825 15.7071068,13.7071068 L11.7071068,17.7071068 C11.3165825,18.0976311 10.6834175,18.0976311 10.2928932,17.7071068 L8.29289322,15.7071068 C7.90236893,15.3165825 7.90236893,14.6834175 8.29289322,14.2928932 C8.68341751,13.9023689 9.31658249,13.9023689 9.70710678,14.2928932 L11,15.5857864 L14.2928932,12.2928932 Z"></path>
                <path d="M6,1 C6,0.44771525 6.44771525,5.32907052e-15 7,5.32907052e-15 L17,5.32907052e-15 C17.5522847,5.32907052e-15 18,0.44771525 18,1 L18,7 C18,7.55228475 17.5522847,8 17,8 L14,8 C13.4477153,8 13,7.55228475 13,7 C13,6.44728475 12.5527153,6 12,6 C11.4472847,6 11,6.44728475 11,7 C11,7.55228475 10.5522847,8 10,8 L7,8 C6.44771525,8 6,7.55228475 6,7 L6,1 Z M8,2 L8,6 L9.17060009,6 C9.58229049,4.83462116 10.6933783,4 12,4 C13.3066217,4 14.4177095,4.83462116 14.8293999,6 L16,6 L16,2 L8,2 Z"></path>
            </g>
        </g>
    </g>
</svg>