
<svg width="16px" height="16px" viewBox="0 0 16 16" version="1.1" xmlns="http://www.w3.org/2000/svg" xmlns:xlink="http://www.w3.org/1999/xlink">
    <g fill="#051D39" stroke="none" stroke-width="1" fill-rule="evenodd">
        <g transform="translate(-231.000000, -1033.000000)">
            <g transform="translate(227.000000, 1029.000000)">
                <g transform="translate(12.000000, 12.000000) rotate(-270.000000) translate(-12.000000, -12.000000) translate(4.000000, 4.000000)">
                    <path d="M3,5 L12.6,5 L11.3,6.3 C10.9,6.7 10.9,7.3 11.3,7.7 C11.5,7.9 11.7,8 12,8 C12.3,8 12.5,7.9 12.7,7.7 L15.7,4.7 C16.1,4.3 16.1,3.7 15.7,3.3 L12.7,0.3 C12.3,-0.1 11.7,-0.1 11.3,0.3 C10.9,0.7 10.9,1.3 11.3,1.7 L12.6,3 L3,3 C2.4,3 2,3.4 2,4 C2,4.6 2.4,5 3,5 Z"></path>
                    <path d="M13,11 L3.4,11 L4.7,9.7 C5.1,9.3 5.1,8.7 4.7,8.3 C4.3,7.9 3.7,7.9 3.3,8.3 L0.3,11.3 C-0.1,11.7 -0.1,12.3 0.3,12.7 L3.3,15.7 C3.5,15.9 3.7,16 4,16 C4.3,16 4.5,15.9 4.7,15.7 C5.1,15.3 5.1,14.7 4.7,14.3 L3.4,13 L13,13 C13.6,13 14,12.6 14,12 C14,11.4 13.6,11 13,11 Z" opacity="0.5"></path>
                </g>
            </g>
        </g>
    </g>
</svg>