
<svg width="19px" height="19px" viewBox="0 0 19 19" version="1.1" xmlns="http://www.w3.org/2000/svg" xmlns:xlink="http://www.w3.org/1999/xlink">
    <g fill="#051D39" stroke="none" stroke-width="1" fill-rule="evenodd">
        <g transform="translate(-777.000000, -1032.000000)">
            <g transform="translate(774.000000, 1029.000000)">
                <path d="M15.9056439,17.3198574 C14.5509601,18.3729184 12.8487115,19 11,19 C6.581722,19 3,15.418278 3,11 C3,6.581722 6.581722,3 11,3 C15.418278,3 19,6.581722 19,11 C19,12.8487115 18.3729184,14.5509601 17.3198574,15.9056439 L21.7071068,20.2928932 C22.0976311,20.6834175 22.0976311,21.3165825 21.7071068,21.7071068 C21.3165825,22.0976311 20.6834175,22.0976311 20.2928932,21.7071068 L15.9056439,17.3198574 Z M11,17 C14.3137085,17 17,14.3137085 17,11 C17,7.6862915 14.3137085,5 11,5 C7.6862915,5 5,7.6862915 5,11 C5,14.3137085 7.6862915,17 11,17 Z" id="Combined-Shape-Copy"></path>
                <path d="M12,10 L14,10 C14.5522847,10 15,10.4477153 15,11 C15,11.5522847 14.5522847,12 14,12 L12,12 L12,14 C12,14.5522847 11.5522847,15 11,15 C10.4477153,15 10,14.5522847 10,14 L10,12 L8,12 C7.44771525,12 7,11.5522847 7,11 C7,10.4477153 7.44771525,10 8,10 L10,10 L10,8 C10,7.44771525 10.4477153,7 11,7 C11.5522847,7 12,7.44771525 12,8 L12,10 Z" opacity="0.5"></path>
            </g>
        </g>
    </g>
</svg>