
<svg width="8px" height="12px" viewBox="0 0 8 12" version="1.1" xmlns="http://www.w3.org/2000/svg" xmlns:xlink="http://www.w3.org/1999/xlink">
    <g fill="#051D39" stroke="none" stroke-width="1" fill-rule="evenodd">
        <g transform="translate(-384.000000, -1151.000000)">
            <g transform="translate(382.000000, 1151.000000)">
                <path d="M5.99974999,0 C5.83674113,0 5.68373282,0.06625 5.59022775,0.177916667 L2.09003766,4.34458333 C1.98303185,4.47166667 1.9710312,4.63791667 2.05603582,4.77583333 C2.14254051,4.91375 2.31304977,5 2.4995599,5 L9.5004401,5 C9.68695023,5 9.85795951,4.91375 9.94396418,4.77583333 C10.0289688,4.63791667 10.0169681,4.47166667 9.90996234,4.34458333 L6.40977225,0.177916667 C6.3167672,0.06625 6.16375889,0 6.00075004,0 C6.00025001,0 6.00025001,0 5.99974999,0 C6.00025001,0 6.00025001,0 5.99974999,0 Z"></path>
                <path d="M5.99974999,7 C5.83674113,7 5.68373282,7.06625 5.59022775,7.17791667 L2.09003766,11.3445833 C1.98303185,11.4716667 1.9710312,11.6379167 2.05603582,11.7758333 C2.14254051,11.91375 2.31304977,12 2.4995599,12 L9.5004401,12 C9.68695023,12 9.85795951,11.91375 9.94396418,11.7758333 C10.0289688,11.6379167 10.0169681,11.4716667 9.90996234,11.3445833 L6.40977225,7.17791667 C6.3167672,7.06625 6.16375889,7 6.00075004,7 C6.00025001,7 6.00025001,7 5.99974999,7 C6.00025001,7 6.00025001,7 5.99974999,7 Z" id="Path-Copy-2" transform="translate(6.000000, 9.500000) rotate(-180.000000) translate(-6.000000, -9.500000) "></path>
            </g>
        </g>
    </g>
</svg>