
<svg width="16px" height="16px" viewBox="0 0 16 16" version="1.1" xmlns="http://www.w3.org/2000/svg" xmlns:xlink="http://www.w3.org/1999/xlink">
    <g fill="#051D39" stroke="none" stroke-width="1" fill-rule="evenodd">
        <g transform="translate(-194.000000, -990.000000)">
            <g transform="translate(190.000000, 986.000000)">
                <path d="M15,20 C14.7348052,19.9999434 14.4804927,19.8945494 14.293,19.707 L12.293,17.707 L13.707,16.293 L15,17.586 L18.293,14.293 L19.707,15.707 L15.707,19.707 C15.5195073,19.8945494 15.2651948,19.9999434 15,20 Z" opacity="0.5"></path>
                <path d="M11,18 L6,18 L6,9 L18,9 L18,13 L20,13 L20,7 C20,6.44771525 19.5522847,6 19,6 L17,6 L17,4 L15,4 L15,6 L13,6 L13,4 L11,4 L11,6 L9,6 L9,4 L7,4 L7,6 L5,6 C4.44771525,6 4,6.44771525 4,7 L4,19 C4,19.5522847 4.44771525,20 5,20 L11,20 L11,18 Z"></path>
            </g>
        </g>
    </g>
</svg>