
<svg width="22px" height="20px" viewBox="0 0 22 20" version="1.1" xmlns="http://www.w3.org/2000/svg" xmlns:xlink="http://www.w3.org/1999/xlink">
    <g fill="#051D39" stroke="none" stroke-width="1" fill-rule="evenodd">
        <g transform="translate(-295.000000, -988.000000)">
            <g transform="translate(294.000000, 986.000000)">
                <g transform="translate(1.000000, 2.000000)">
                    <path d="M2.59533186,9 L-1.49213975e-13,7.78001175 L0.616568013,6.49618161 C2.51185384,2.54962479 6.58862969,0 11.0021045,0 C15.4113703,0 19.4860344,2.54614277 21.3827281,6.48715677 L22,7.7702905 L19.406076,8.99236797 L18.788804,7.70853783 C17.3662874,4.75295143 14.3094058,2.8424703 11.0021045,2.8424703 C7.69129809,2.8424703 4.6337126,4.75572284 3.21189987,7.71616987 L2.59533186,9 Z" opacity="0.5"></path>
                    <path d="M8.15050074,17.4710742 C7.5893871,15.587981 8.79056347,7.34446 8.79056347,7.34446 C8.79056347,7.34446 14.2880538,13.5194551 14.8491674,15.4025364 C15.4102811,17.2856177 14.3656029,19.2752222 12.515812,19.8464378 C10.6660212,20.4176533 8.71161439,19.3541556 8.15050074,17.4710742 Z"></path>
                </g>
            </g>
        </g>
    </g>
</svg>