
<svg width="20px" height="16px" viewBox="0 0 20 16" version="1.1" xmlns="http://www.w3.org/2000/svg" xmlns:xlink="http://www.w3.org/1999/xlink">
    <g fill="#051D39" stroke="none" stroke-width="1" fill-rule="evenodd">
        <g transform="translate(-226.000000, -990.000000)">
            <g transform="translate(224.000000, 986.000000)">
                <g transform="translate(2.000000, 4.000000)">
                    <path d="M14,2.9717682 L1.27272727,3 C0.570181818,3 0,2.33432392 0,1.5141159 L0,1.5141159 C0,0.693907875 0.570181818,0.0282317979 1.27272727,0.0282317979 L14,0 L14,2.9717682 Z"></path>
                    <path d="M18.7272727,10 L6,10 L6,7 L18.7272727,7 C19.4298182,7 20,7.672 20,8.5 L20,8.5 C20,9.328 19.4298182,10 18.7272727,10 Z"></path>
                    <path d="M14,16 L1.27272727,16 C0.570181818,16 0,15.328 0,14.5 L0,14.5 C0,13.672 0.570181818,13 1.27272727,13 L14,13 L14,16 Z"></path>
                    <path d="M18.6666667,3 L16,2.9717682 L16,0 L18.6666667,0.0282317979 C19.4026667,0.0282317979 20,0.693907875 20,1.5141159 L20,1.5141159 C20,2.33580981 19.4026667,3 18.6666667,3 Z" opacity="0.5"></path>
                    <path d="M18.6666667,16 L16,16 L16,13 L18.6666667,13 C19.4026667,13 20,13.672 20,14.5 L20,14.5 C20,15.328 19.4026667,16 18.6666667,16 Z" opacity="0.5"></path>
                    <path d="M4,10 L1.33333333,10 C0.597333333,10 0,9.328 0,8.5 L0,8.5 C0,7.672 0.597333333,7 1.33333333,7 L4,7 L4,10 Z" opacity="0.5"></path>
                </g>
            </g>
        </g>
    </g>
</svg>