
<svg width="16px" height="16px" viewBox="0 0 16 16" version="1.1" xmlns="http://www.w3.org/2000/svg" xmlns:xlink="http://www.w3.org/1999/xlink">
    <g fill="#051D39" stroke="none" stroke-width="1" fill-rule="evenodd">
        <g transform="translate(-577.000000, -990.000000)">
            <g transform="translate(573.000000, 986.000000)">
                <path d="M6,10 L6,18 C6,19.1 6.9,20 8,20 L16,20 C17.1,20 18,19.1 18,18 L18,10 L6,10 Z"></path>
                <path d="M16,7 L16,5 C16,4.4 15.6,4 15,4 L9,4 C8.4,4 8,4.4 8,5 L8,7 L4,7 L4,9 L20,9 L20,7 L16,7 Z M14,7 L10,7 L10,6 L14,6 L14,7 Z" opacity="0.5"></path>
            </g>
        </g>
    </g>
</svg>