
<svg width="16px" height="16px" viewBox="0 0 16 16" version="1.1" xmlns="http://www.w3.org/2000/svg" xmlns:xlink="http://www.w3.org/1999/xlink">
    <g fill="#051D39" stroke="none" stroke-width="1" fill-rule="evenodd">
        <g transform="translate(-929.000000, -1033.000000)" fill-rule="nonzero">
            <g transform="translate(929.000000, 1033.000000)">
                <path d="M8,0 C3.6,0 0,3.6 0,8 C0,12.4 3.6,16 8,16 C12.4,16 16,12.4 16,8 C16,3.6 12.4,0 8,0 Z M13.9,7 L11.8,7 C11.5,5.6 10.4,4.5 9,4.1 L9,2.1 C11.5,2.5 13.5,4.5 13.9,7 Z M6,8 C6,6.9 6.9,6 8,6 C9.1,6 10,6.9 10,8 C10,9.1 9.1,10 8,10 C6.9,10 6,9.1 6,8 Z M7,2.1 L7,4.2 C5.3,4.6 4,6.1 4,8 C4,8.7 4.2,9.3 4.5,9.9 L3,11.3 C2.4,10.3 2,9.2 2,8 C2,5 4.2,2.6 7,2.1 Z M8,14 C6.6,14 5.4,13.5 4.4,12.8 L5.9,11.4 C6.5,11.8 7.2,12 8,12 C9.9,12 11.4,10.7 11.9,9 L14,9 C13.4,11.8 11,14 8,14 Z"></path>
            </g>
        </g>
    </g>
</svg>