
<svg width="16px" height="14px" viewBox="0 0 16 14" version="1.1" xmlns="http://www.w3.org/2000/svg" xmlns:xlink="http://www.w3.org/1999/xlink">
    <g fill="#051D39" stroke="none" stroke-width="1" fill-rule="evenodd">
        <g transform="translate(-716.000000, -991.000000)">
            <g transform="translate(712.000000, 986.000000)">
                <path d="M13,19 L11,19 C10.448,19 10,18.552 10,18 C10,17.448 10.448,17 11,17 L13,17 C13.552,17 14,17.448 14,18 C14,18.552 13.552,19 13,19 Z M15,15 L9,15 C8.448,15 8,14.552 8,14 C8,13.448 8.448,13 9,13 L15,13 C15.552,13 16,13.448 16,14 C16,14.552 15.552,15 15,15 Z M17,11 L7,11 C6.448,11 6,10.552 6,10 C6,9.448 6.448,9 7,9 L17,9 C17.552,9 18,9.448 18,10 C18,10.552 17.552,11 17,11 Z M19,7 L5,7 C4.448,7 4,6.552 4,6 C4,5.448 4.448,5 5,5 L19,5 C19.552,5 20,5.448 20,6 C20,6.552 19.552,7 19,7 Z"></path>
            </g>
        </g>
    </g>
</svg>