
<svg width="16px" height="16px" viewBox="0 0 16 16" version="1.1" xmlns="http://www.w3.org/2000/svg" xmlns:xlink="http://www.w3.org/1999/xlink">
    <g fill="#051D39" stroke="none" stroke-width="1" fill-rule="evenodd">
        <g transform="translate(-412.000000, -1076.000000)">
            <g transform="translate(412.000000, 1076.000000)">
                <g>
                    <rect opacity="0.5" x="0" y="14" width="16" height="2"></rect>
                    <path d="M15,-5.77315973e-14 L9,-5.77315973e-14 L9,1 L10.44721,1.72361 C10.786,1.893 11,2.23926 11,2.61803 L11,6.8816 C11,8.33247 10.02218,9.6652 8.59793,9.94185 C6.68269,10.31386 5,8.84987 5,7 L5,2.61803 C5,2.23926 5.214,1.893 5.55279,1.72361 L7,1 L7,-5.77315973e-14 L1,-5.77315973e-14 L1,1 L2.44721,1.72361 C2.786,1.893 3,2.23926 3,2.61803 L3,6.777 C3,9.38679 4.90274,11.72197 7.50018,11.97555 C10.48047,12.2665 13,9.92173 13,7 L13,2.61803 C13,2.23926 13.214,1.89299 13.55279,1.7236 L15,1 L15,-5.77315973e-14 Z"></path>
                </g>
            </g>
        </g>
    </g>
</svg>