
<svg width="16px" height="16px" viewBox="0 0 16 16" version="1.1" xmlns="http://www.w3.org/2000/svg" xmlns:xlink="http://www.w3.org/1999/xlink">
    <g fill="#051D39" stroke="none" stroke-width="1" fill-rule="evenodd">
        <g transform="translate(-900.000000, -1033.000000)" fill-rule="nonzero">
            <g transform="translate(900.000000, 1033.000000)">
                <path d="M15,0 L1,0 C0.4,0 0,0.4 0,1 L0,15 C0,15.6 0.4,16 1,16 L15,16 C15.6,16 16,15.6 16,15 L16,1 C16,0.4 15.6,0 15,0 Z M14,7 L9,7 L9,2 L14,2 L14,7 Z M7,2 L7,7 L2,7 L2,2 L7,2 Z M2,9 L7,9 L7,14 L2,14 L2,9 Z M9,14 L9,9 L14,9 L14,14 L9,14 Z"></path>
            </g>
        </g>
    </g>
</svg>