
<svg width="16px" height="14px" viewBox="0 0 16 14" version="1.1" xmlns="http://www.w3.org/2000/svg" xmlns:xlink="http://www.w3.org/1999/xlink">
    <g fill="#051D39" stroke="none" stroke-width="1" fill-rule="evenodd">
        <g transform="translate(-786.000000, -991.000000)">
            <g transform="translate(782.000000, 986.000000)">
                <path d="M19,5 L5,5 C4.4,5 4,5.4 4,6 L4,18 C4,18.6 4.4,19 5,19 L19,19 C19.6,19 20,18.6 20,18 L20,6 C20,5.4 19.6,5 19,5 Z M6,11 L14,11 L14,13 L6,13 L6,11 Z M14,7 L14,9 L6,9 L6,7 L14,7 Z M6,15 L14,15 L14,17 L6,17 L6,15 Z M18,17 L16,17 L16,7 L18,7 L18,17 Z"></path>
            </g>
        </g>
    </g>
</svg>