
<svg width="14px" height="14px" viewBox="0 0 14 14" version="1.1" xmlns="http://www.w3.org/2000/svg" xmlns:xlink="http://www.w3.org/1999/xlink">
    <g fill="#051D39" stroke="none" stroke-width="1" fill-rule="evenodd">
        <g transform="translate(-822.000000, -991.000000)">
            <g transform="translate(817.000000, 986.000000)">
                <path d="M17.775,9.9 L10.6,17.075 C11.0375,17.1625 11.5625,17.25 12,17.25 C15.15,17.25 17.6,14.5375 18.65,12.9625 C19.0875,12.35 19.0875,11.5625 18.65,10.95 C18.475,10.6875 18.125,10.3375 17.775,9.9 Z"></path>
                <path d="M17.5125,5.2625 L15.15,7.625 C14.1875,7.1 13.1375,6.75 12,6.75 C8.85,6.75 6.4,9.4625 5.35,11.0375 C4.9125,11.65 4.9125,12.4375 5.35,12.9625 C5.7875,13.6625 6.575,14.5375 7.45,15.325 L5.2625,17.5125 C4.9125,17.8625 4.9125,18.3875 5.2625,18.7375 C5.4375,18.9125 5.6125,19 5.875,19 C6.1375,19 6.3125,18.9125 6.4875,18.7375 L18.7375,6.4875 C19.0875,6.1375 19.0875,5.6125 18.7375,5.2625 C18.3875,4.9125 17.8625,4.9125 17.5125,5.2625 Z M9.6375,13.1375 C9.4625,12.7875 9.375,12.4375 9.375,12 C9.375,10.5125 10.5125,9.375 12,9.375 C12.4375,9.375 12.7875,9.4625 13.1375,9.6375 L9.6375,13.1375 Z"></path>
            </g>
        </g>
    </g>
</svg>