
<svg width="16px" height="18px" viewBox="0 0 16 18" version="1.1" xmlns="http://www.w3.org/2000/svg" xmlns:xlink="http://www.w3.org/1999/xlink">
    <g fill="#051D39" stroke="none" stroke-width="1" fill-rule="evenodd">
        <g transform="translate(-121.000000, -1032.000000)">
            <g transform="translate(117.000000, 1029.000000)">
                <path d="M12,3 C9.48571429,3 7.42857143,5.025 7.42857143,7.5 L7.42857143,8.625 L5.14285714,8.625 C4.45714286,8.625 4,9.075 4,9.75 L4,19.875 C4,20.55 4.45714286,21 5.14285714,21 L18.8571429,21 C19.5428571,21 20,20.55 20,19.875 L20,9.75 C20,9.075 19.5428571,8.625 18.8571429,8.625 L16.5714286,8.625 L16.5714286,7.5 C16.5714286,5.025 14.5142857,3 12,3 Z M13.1428571,16.1625 L13.1428571,17.625 L10.8571429,17.625 L10.8571429,16.1625 C10.1714286,15.825 9.71428571,15.0375 9.71428571,14.25 C9.71428571,13.0125 10.7428571,12 12,12 C13.2571429,12 14.2857143,13.0125 14.2857143,14.25 C14.2857143,15.0375 13.8285714,15.825 13.1428571,16.1625 Z M14.2857143,8.625 L9.71428571,8.625 L9.71428571,7.5 C9.71428571,6.2625 10.7428571,5.25 12,5.25 C13.2571429,5.25 14.2857143,6.2625 14.2857143,7.5 L14.2857143,8.625 Z"></path>
            </g>
        </g>
    </g>
</svg>