
<svg width="18px" height="18px" viewBox="0 0 18 18" version="1.1" xmlns="http://www.w3.org/2000/svg" xmlns:xlink="http://www.w3.org/1999/xlink">
    <g fill="#051D39" stroke="none" stroke-width="1" fill-rule="evenodd">
        <g transform="translate(-376.000000, -1032.000000)">
            <g transform="translate(373.000000, 1029.000000)">
                <g transform="translate(2.000000, 2.000000)">
                    <path d="M10,3.75 C11.47375,3.75 12.88875,4.27875 14.00625,5.2125 L11.10375,8.115 L18.8675,8.78875 L18.19375,1.025 L15.78125,3.4375 C14.19125,2.04 12.1375,1.25 10,1.25 C5.70875,1.25 2.08,4.3175 1.37125,8.5425 L3.8375,8.95625 C4.3425,5.94 6.935,3.75 10,3.75 Z"></path>
                    <path d="M10,16.25 C8.52625,16.25 7.11125,15.72125 5.99375,14.7875 L8.89625,11.885 L1.1325,11.21125 L1.80625,18.975 L4.21875,16.5625 C5.80875,17.96 7.8625,18.75 10,18.75 C14.29125,18.75 17.92,15.6825 18.62875,11.4575 L16.1625,11.04375 C15.6575,14.06 13.065,16.25 10,16.25 Z" opacity="0.5"></path>
                </g>
            </g>
        </g>
    </g>
</svg>