
<svg width="18px" height="16px" viewBox="0 0 18 16" version="1.1" xmlns="http://www.w3.org/2000/svg" xmlns:xlink="http://www.w3.org/1999/xlink">
    <g fill="#051D39" stroke="none" stroke-width="1" fill-rule="evenodd">
        <g transform="translate(-486.000000, -1033.000000)">
            <g transform="translate(482.000000, 1029.000000)">
                <path d="M20,14 L20,16 L22,16 L22,18 L20,18 L20,20 L18,20 L18,18 L16,18 L16,16 L18,16 L18,14 L20,14 Z M11,4 L13,4 L13,7 L11,7 L11,4 Z" opacity="0.5"></path>
                <g stroke-width="1" transform="translate(4.000000, 4.000000)">
                    <path d="M10.9996338,16 L1,16 C0.4,16 0,15.6 0,15 L0,1 C0,0.4 0.4,0 1,0 L3,0 L3,3 C3,3.6 3.4,4 4,4 L9,4 C9.6,4 10,3.6 10,3 L10,0 L11,0 C11.3,0 11.5,0.1 11.7,0.3 L15.7,4.3 C15.9,4.5 16,4.7 16,5 L16,8.10001812 C15.6768901,8.03443026 15.3424658,8 15,8 C13.3641822,8 11.9118401,8.7855533 10.9996338,10 L4,10 C3.4,10 3,10.4 3,11 L3,14 L10.1000181,14 C10.2500024,14.7388776 10.5629193,15.4185894 10.9996338,16 L10.9996338,16 Z"></path>
                </g>
            </g>
        </g>
    </g>
</svg>