
<svg width="16px" height="16px" viewBox="0 0 16 16" version="1.1" xmlns="http://www.w3.org/2000/svg" xmlns:xlink="http://www.w3.org/1999/xlink">
    <g fill="#051D39" stroke="none" stroke-width="1" fill-rule="evenodd">
        <g transform="translate(-596.000000, -1033.000000)">
            <g transform="translate(592.000000, 1029.000000)">
                <path d="M12,4 C7.6,4 4,7.6 4,12 C4,16.4 7.6,20 12,20 C16.4,20 20,16.4 20,12 C20,7.6 16.4,4 12,4 Z M12,18 C8.7,18 6,15.3 6,12 C6,8.7 8.7,6 12,6 C15.3,6 18,8.7 18,12 C18,15.3 15.3,18 12,18 Z"></path>
                <polygon points="13 8 11 8 11 13 16 13 16 11 13 11"></polygon>
            </g>
        </g>
    </g>
</svg>