
<svg width="16px" height="14px" viewBox="0 0 16 14" version="1.1" xmlns="http://www.w3.org/2000/svg" xmlns:xlink="http://www.w3.org/1999/xlink">
    <g fill="#0277E7" stroke="none" stroke-width="1" fill-rule="evenodd">
        <g transform="translate(-121.000000, -559.000000)">
            <g transform="translate(120.000000, 556.000000)">
                <g transform="translate(0.000000, 3.000000)">
                    <rect x="9" y="2" width="8" height="2"></rect>
                    <path d="M2,6 L6,6 C6.55228475,6 7,5.55228475 7,5 L7,1 C7,0.44771525 6.55228475,0 6,0 L2,0 C1.44771525,0 1,0.44771525 1,1 L1,5 C1,5.55228475 1.44771525,6 2,6 Z M3,2 L5,2 L5,4 L3,4 L3,2 Z" fill-rule="nonzero"></path>
                    <rectopacity="0.5" x="9" y="10" width="8" height="2"></rect>
                    <path d="M7.219,7.375 L3.917,11.5 L2.707,10.29 C2.31570625,9.89953468 1.68196532,9.90020625 1.2915,10.2915 C0.901034682,10.6827937 0.901706255,11.3165347 1.293,11.707 L3.293,13.707 C3.48049273,13.8945494 3.73480519,13.9999434 4,14 L4.055,14 C4.33903629,13.9845826 4.60306521,13.8489313 4.781,13.627 L8.781,8.627 C9.004291,8.34797557 9.06176263,7.97102204 8.93176589,7.63813415 C8.80176914,7.30524626 8.50405362,7.06699761 8.15076588,7.01313415 C7.79747814,6.95927069 7.44229099,7.09797557 7.219,7.377 L7.219,7.375 Z" opacity="0.5"></path>
                </g>
            </g>
        </g>
    </g>
</svg>