
<svg width="14px" height="17px" viewBox="0 0 14 17" version="1.1" xmlns="http://www.w3.org/2000/svg" xmlns:xlink="http://www.w3.org/1999/xlink">
    <g fill="#0277E7" stroke="none" stroke-width="1" fill-rule="evenodd">
        <g transform="translate(-398.000000, -588.000000)" fill-rule="nonzero">
            <g transform="translate(398.000000, 586.000000)">
                <g transform="translate(0.000000, 2.000000)">
                    <path d="M1.73702292,9 L11.7370229,9 L11.7370229,12.0002754 C11.7370229,14.7616992 9.49844667,17.0002754 6.73702292,17.0002754 C3.97559917,17.0002754 1.73702292,14.7616992 1.73702292,12.0002754 L1.73702292,9 Z M9.73702292,12.6002754 L9.73702292,11.0002754 L3.73702292,11.0002754 L3.73702292,12.6002754 C3.73702292,13.9257588 5.08016867,15.0002754 6.73702292,15.0002754 C8.39387717,15.0002754 9.73702292,13.9257588 9.73702292,12.6002754 Z" ></path>
                    <path d="M1.73702292,8 L1.73702292,5.79027544 C0.734086384,5.39224315 0.0553825841,4.44588701 2.29196962e-05,3.36827544 C-0.00406201019,2.40876117 0.538174918,1.53052948 1.39783829,1.10430983 C2.25750166,0.678090172 3.2847786,0.778159525 4.04602292,1.36227544 C4.67513654,0.505836057 5.67435065,1.76984621e-14 6.73702292,1.77635684e-14 C7.79969519,1.78286205e-14 8.7989093,0.505836057 9.42802292,1.36227544 C9.86368346,1.02643854 10.397946,0.843664509 10.9480229,0.842275436 C11.6179598,0.842275436 12.2604578,1.10840682 12.7341746,1.58212371 C13.2078915,2.0558406 13.4740229,2.69833858 13.4740229,3.36827544 C13.4186633,4.44588701 12.7399595,5.39224315 11.7370229,5.79027544 L11.7370229,8 L1.73702292,8 Z M6.68399028,16 L6.79005556,16 C6.7723998,16.0001835 6.7547221,16.0002754 6.73702292,16.0002754 C6.71932374,16.0002754 6.70164604,16.0001835 6.68399028,16 Z" opacity="0.5"></path>
                </g>
            </g>
        </g>
    </g>
</svg>