
<svg width="16px" height="16px" viewBox="0 0 16 16" version="1.1" xmlns="http://www.w3.org/2000/svg" xmlns:xlink="http://www.w3.org/1999/xlink">
    <g fill="#0277E7" stroke="none" stroke-width="1" fill-rule="evenodd">
        <g transform="translate(-398.000000, -264.000000)">
            <g transform="translate(398.000000, 264.000000)">
                <g>
                    <path d="M15,6 L12,6 L12,8 L14,8 L14,14 L2,14 L2,8 L3,8 L3,6 L1,6 C0.4,6 0,6.4 0,7 L0,15 C0,15.6 0.4,16 1,16 L15,16 C15.6,16 16,15.6 16,15 L16,7 C16,6.4 15.6,6 15,6 Z"></path>
                    <path d="M5,8 L7,8 C7.3,8 7.5,7.9 7.7,7.7 L12.7,2.7 C13.1,2.3 13.1,1.7 12.7,1.3 L11.7,0.3 C11.3,-0.1 10.7,-0.1 10.3,0.3 L5.3,5.3 C5.1,5.5 5,5.7 5,6 L5,8 Z" opacity="0.5"></path>
                    <rectopacity="0.5" x="4" y="10" width="8" height="2"></rect>
                </g>
            </g>
        </g>
    </g>
</svg>