
<svg width="16px" height="16px" viewBox="0 0 16 16" version="1.1" xmlns="http://www.w3.org/2000/svg" xmlns:xlink="http://www.w3.org/1999/xlink">
    <g fill="#0277E7" stroke="none" stroke-width="1" fill-rule="evenodd">
        <g transform="translate(-399.000000, -618.000000)">
            <g transform="translate(398.000000, 617.000000)">
                <g>
                    <rect opacity="0.5" transform="translate(14.429535, 14.429646) rotate(-45.000000) translate(-14.429535, -14.429646) " x="13.4295346" y="12.6231464" width="2" height="3.613"></rect>
                    <path d="M15.707,2.293 C15.3165001,1.90261806 14.6834999,1.90261806 14.293,2.293 L9,7.586 L8.061,6.646 L8.854,5.854 C8.9480417,5.76019574 9.00089378,5.63282726 9.00089378,5.5 C9.00089378,5.36717274 8.9480417,5.23980426 8.854,5.146 L4.854,1.146 C4.6584912,0.950491206 4.34150881,0.950491209 4.14600001,1.14600001 C3.95049121,1.34150881 3.95049121,1.6584912 4.146,1.854 L7.293,5 L6.5,5.793 L3.354,2.646 C3.1584912,2.45049121 2.84150881,2.45049121 2.64600001,2.64600001 C2.45049121,2.84150881 2.45049121,3.1584912 2.646,3.354 L5.793,6.5 L5,7.293 L1.854,4.146 C1.6584912,3.95049121 1.34150881,3.95049121 1.14600001,4.14600001 C0.950491209,4.34150881 0.950491206,4.6584912 1.146,4.854 L5.146,8.854 C5.23980426,8.9480417 5.36717274,9.00089378 5.5,9.00089378 C5.63282726,9.00089378 5.76019574,8.9480417 5.854,8.854 L6.646,8.061 L7.586,9 L1.586,15 L3,16.414 L7,12.414 L8.324,13.738 C8.71449985,14.1283819 9.34750015,14.1283819 9.738,13.738 L15.707,7.77 C16.4337426,7.04394208 16.8420799,6.0587852 16.8420799,5.0315 C16.8420799,4.0042148 16.4337426,3.01905792 15.707,2.293 Z" ></path>
                </g>
            </g>
        </g>
    </g>
</svg>