
<svg width="20px" height="24px" viewBox="0 0 20 24" version="1.1" xmlns="http://www.w3.org/2000/svg" xmlns:xlink="http://www.w3.org/1999/xlink">
    <g fill="#0277E7" stroke="none" stroke-width="1" fill-rule="evenodd">
        <g transform="translate(-903.000000, -276.000000)">
            <g transform="translate(897.000000, 272.000000)">
                <g>
                    <g>
                        <g>
                            <g transform="translate(6.000000, 4.000000)">
                                <path d="M10,10 C6.2,10 2.3,9.3 0,7.6 L0,12 C0,14.7 5.2,16 10,16 C14.8,16 20,14.7 20,12 L20,7.6 C17.7,9.3 13.8,10 10,10 Z" opacity="0.5"></path>
                                <path d="M10,18 C6.2,18 2.3,17.3 0,15.6 L0,20 C0,22.7 5.2,24 10,24 C14.8,24 20,22.7 20,20 L20,15.6 C17.7,17.3 13.8,18 10,18 Z" ></path>
                                <path d="M10,0 C5.2,0 0,1.3 0,4 C0,6.7 5.2,8 10,8 C14.8,8 20,6.7 20,4 C20,1.3 14.8,0 10,0 Z" ></path>
                            </g>
                        </g>
                    </g>
                </g>
            </g>
        </g>
    </g>
</svg>