
<svg width="24px" height="24px" viewBox="0 0 24 24" version="1.1" xmlns="http://www.w3.org/2000/svg" xmlns:xlink="http://www.w3.org/1999/xlink">
    <g fill="#0277E7" stroke="none" stroke-width="1" fill-rule="evenodd">
        <g transform="translate(-648.000000, -882.000000)">
            <g transform="translate(644.000000, 875.000000)">
                <g transform="translate(0.000000, 3.000000)">
                    <g>
                        <g transform="translate(4.000000, 4.000000)">
                            <polygon opacity="0.5" points="17 19 12 24 7 19 11 19 11 15 13 15 13 19"></polygon>
                            <path d="M18.982,7.147 C18.797,3.17 15.523,0 11.5,0 C8.214,0 5.428,2.117 4.414,5.059 C1.932,5.352 0,7.439 0,10 C0,12.761 2.239,15 5,15 L11,15 L11,11 L13,11 L13,15 L20,15 C22.209,15 24,13.209 24,11 C24,8.464 21.621,6.45 18.982,7.147 Z" ></path>
                        </g>
                    </g>
                </g>
            </g>
        </g>
    </g>
</svg>