
<svg width="24px" height="26px" viewBox="0 0 24 26" version="1.1" xmlns="http://www.w3.org/2000/svg" xmlns:xlink="http://www.w3.org/1999/xlink">
    <g fill="#0277E7" stroke="none" stroke-width="1" fill-rule="evenodd">
        <g transform="translate(-648.000000, -780.000000)">
            <g transform="translate(644.000000, 774.000000)">
                <g transform="translate(0.000000, 3.000000)">
                    <g>
                        <g transform="translate(4.000000, 3.000000)">
                            <path d="M1,0 C0.448,0 0,0.485333333 0,1.08333333 L0,24.9166667 C0,25.5146667 0.448,26 1,26 C1.552,26 2,25.5146667 2,24.9166667 L2,1.08333333 C2,0.485333333 1.552,0 1,0 Z" opacity="0.5"></path>
                            <path d="M24,2 L5.11111111,2 C4.49777778,2 4,2.48 4,3.07142857 L4,15.9285714 C4,16.52 4.49777778,17 5.11111111,17 L24,17 L20.6666667,9.5 L24,2 Z" ></path>
                        </g>
                    </g>
                </g>
            </g>
        </g>
    </g>
</svg>