
<svg width="24px" height="24px" viewBox="0 0 24 24" version="1.1" xmlns="http://www.w3.org/2000/svg" xmlns:xlink="http://www.w3.org/1999/xlink">
    <g fill="#0277E7" stroke="none" stroke-width="1" fill-rule="evenodd">
        <g transform="translate(-897.000000, -329.000000)">
            <g transform="translate(897.000000, 324.000000)">
                <g transform="translate(0.000000, 5.000000)">
                    <path d="M18,8 C15.1,8 12,10.2 12,14 C12,17.4 16.8,22.3 17.3,22.8 C17.5,23 17.8,23.1 18,23.1 C18.2,23.1 18.5,23 18.7,22.8 C19.2,22.3 24,17.4 24,14 C24,10.2 20.9,8 18,8 Z M18,16 C16.9,16 16,15.1 16,14 C16,12.9 16.9,12 18,12 C19.1,12 20,12.9 20,14 C20,15.1 19.1,16 18,16 Z" opacity="0.5"></path>
                    <path d="M6,10.9 C6.6,11.6 7.5,12 8.5,12 C9.2,12 9.8,11.8 10.4,11.4 C11.5,8 14.8,6 18,6 C19.2,6 20.4,6.3 21.5,6.8 L17.9,0.5 C17.7,0.2 17.4,0 17,0 L5,0 C4.6,0 4.3,0.2 4.1,0.5 L0.1,7.5 C0,7.7 0,7.8 0,8 C0,10.4 1.4,12 3.5,12 C4.5,12 5.4,11.6 6,10.9 Z" ></path>
                    <path d="M10,14 C10,13.9 10,13.9 10,13.8 C9.5,13.9 9,14 8.5,14 C7.6,14 6.8,13.8 6,13.4 C5.2,13.8 4.4,14 3.5,14 C3.3,14 3.2,14 3,14 L3,21 C3,21.6 3.4,22 4,22 L13.9,22 C12.1,19.9 10,16.7 10,14 Z" ></path>
                </g>
            </g>
        </g>
    </g>
</svg>