
<svg width="16px" height="16px" viewBox="0 0 16 16" version="1.1" xmlns="http://www.w3.org/2000/svg" xmlns:xlink="http://www.w3.org/1999/xlink">
    <g fill="#0277E7" stroke="none" stroke-width="1" fill-rule="evenodd">
        <g transform="translate(-398.000000, -429.000000)">
            <g transform="translate(398.000000, 427.000000)">
                <g transform="translate(0.000000, 2.000000)">
                    <path d="M8,6 L8,6 C6.3,6 5,4.7 5,3 L5,3 C5,1.3 6.3,0 8,0 L8,0 C9.7,0 11,1.3 11,3 L11,3 C11,4.7 9.7,6 8,6 Z" ></path>
                    <polygon points="10 16 6 16 6 12 4 10 4 7 12 7 12 10 10 12"></polygon>
                    <path d="M2,5 L2,5 C0.9,5 0,4.1 0,3 L0,3 C0,1.9 0.9,1 2,1 L2,1 C3.1,1 4,1.9 4,3 L4,3 C4,4.1 3.1,5 2,5 Z" opacity="0.5"></path>
                    <polygonopacity="0.5" points="3 10.4 3 6 0 6 0 9 1 10 1 14 4 14 4 11.4"></polygon>
                    <path d="M14,5 L14,5 C15.1,5 16,4.1 16,3 L16,3 C16,1.9 15.1,1 14,1 L14,1 C12.9,1 12,1.9 12,3 L12,3 C12,4.1 12.9,5 14,5 Z" opacity="0.5"></path>
                    <polygonopacity="0.5" points="13 10.4 13 6 16 6 16 9 15 10 15 14 12 14 12 11.4"></polygon>
                </g>
            </g>
        </g>
    </g>
</svg>