
<svg width="24px" height="22px" viewBox="0 0 24 22" version="1.1" xmlns="http://www.w3.org/2000/svg" xmlns:xlink="http://www.w3.org/1999/xlink">
    <g fill="#0277E7" stroke="none" stroke-width="1" fill-rule="evenodd">
        <g transform="translate(-644.000000, -582.000000)">
            <g transform="translate(644.000000, 577.000000)">
                <g transform="translate(0.000000, 5.000000)">
                    <path d="M18,22 L6,22 C5.447,22 5,21.552 5,21 C5,20.448 5.447,20 6,20 L18,20 C18.553,20 19,20.448 19,21 C19,21.552 18.553,22 18,22 Z" opacity="0.5"></path>
                    <path d="M23,0 L1,0 C0.447,0 0,0.448 0,1 L0,17 C0,17.552 0.447,18 1,18 L23,18 C23.553,18 24,17.552 24,17 L24,1 C24,0.448 23.553,0 23,0 Z M15.515,9.857 L10.515,12.857 C10.356,12.953 10.178,13 10,13 C9.83,13 9.66,12.957 9.507,12.87 C9.193,12.693 9,12.36 9,12 L9,6 C9,5.64 9.193,5.307 9.507,5.13 C9.82,4.952 10.205,4.956 10.515,5.143 L15.515,8.143 C15.815,8.323 16,8.649 16,9 C16,9.351 15.815,9.677 15.515,9.857 Z" fill-rule="nonzero"></path>
                </g>
            </g>
        </g>
    </g>
</svg>