
<svg width="20px" height="24px" viewBox="0 0 20 24" version="1.1" xmlns="http://www.w3.org/2000/svg" xmlns:xlink="http://www.w3.org/1999/xlink">
    <g fill="#0277E7" stroke="none" stroke-width="1" fill-rule="evenodd">
        <g transform="translate(-644.000000, -325.000000)">
            <g transform="translate(644.000000, 320.000000)">
                <g transform="translate(0.000000, 5.000000)">
                    <path d="M12,0 L1,0 C0.44771525,-3.38176876e-17 0,0.44771525 0,1 L0,23 C0,23.5522847 0.44771525,24 1,24 L19,24 C19.5522847,24 20,23.5522847 20,23 L20,8 L13,8 C12.4477153,8 12,7.55228475 12,7 L12,0 Z M3,17 L17,17 L17,19 L3,19 L3,17 Z M3,12 L17,12 L17,14 L3,14 L3,12 Z M9,9 L3,9 L3,7 L9,7 L9,9 Z" fill-rule="nonzero"></path>
                    <polygonopacity="0.5" points="19.414 6 14 6 14 0.586"></polygon>
                </g>
            </g>
        </g>
    </g>
</svg>