
<svg width="24px" height="22px" viewBox="0 0 24 22" version="1.1" xmlns="http://www.w3.org/2000/svg" xmlns:xlink="http://www.w3.org/1999/xlink">
    <g fill="#0277E7" stroke="none" stroke-width="1" fill-rule="evenodd">
        <g transform="translate(-647.000000, -832.000000)">
            <g transform="translate(643.000000, 827.000000)">
                <g>
                    <g>
                        <g transform="translate(4.000000, 5.000000)">
                            <path d="M4,3 L4,0 L1,0 C0.448,0 0,0.448 0,1 L0,3 L4,3 Z" opacity="0.5"></path>
                            <path d="M24,3 L24,1 C24,0.448 23.552,0 23,0 L6,0 L6,3 L24,3 Z" opacity="0.5"></path>
                            <path d="M0,5 L0,21 C0,21.552 0.448,22 1,22 L23,22 C23.552,22 24,21.552 24,21 L24,5 L0,5 Z M8.707,13.707 L5,17.414 L3.586,16 L6.586,13 L3.586,10 L5,8.586 L8.707,12.293 C9.098,12.684 9.098,13.316 8.707,13.707 Z M17,17 L11,17 L11,15 L17,15 L17,17 Z" fill-rule="nonzero"></path>
                        </g>
                    </g>
                </g>
            </g>
        </g>
    </g>
</svg>