
<svg width="15px" height="16px" viewBox="0 0 15 16" version="1.1" xmlns="http://www.w3.org/2000/svg" xmlns:xlink="http://www.w3.org/1999/xlink">
    <g fill="#0277E7" stroke="none" stroke-width="1" fill-rule="evenodd">
        <g transform="translate(-120.000000, -266.000000)">
            <g transform="translate(120.000000, 264.000000)">
                <g transform="translate(0.000000, 2.000000)">
                    <path d="M14.707,7.207 L7.5,0 L2,0 L2,2 L5.914,2 L13.414,9.5 C13.4817876,9.57100344 13.5442879,9.64687275 13.601,9.727 L14.707,8.621 C15.0973819,8.23050015 15.0973819,7.59749985 14.707,7.207 Z" opacity="0.5"></path>
                    <path d="M12.707,10.207 L5.5,3 L0,3 L0,8.5 L7.207,15.707 C7.59749985,16.0973819 8.23050015,16.0973819 8.621,15.707 L12.707,11.621 C13.0973819,11.2305001 13.0973819,10.5974999 12.707,10.207 Z M3,7 C2.44771525,7 2,6.55228475 2,6 C2,5.44771525 2.44771525,5 3,5 C3.55228475,5 4,5.44771525 4,6 C4,6.55228475 3.55228475,7 3,7 Z" fill-rule="nonzero"></path>
                </g>
            </g>
        </g>
    </g>
</svg>