
<svg width="12px" height="12px" viewBox="0 0 12 12" version="1.1" xmlns="http://www.w3.org/2000/svg" xmlns:xlink="http://www.w3.org/1999/xlink">
    <g fill="#051D39" stroke="none" stroke-width="1" fill-rule="evenodd">
        <g transform="translate(-226.000000, -1151.000000)">
            <g transform="translate(226.000000, 1151.000000)">
                <g>
                    <path d="M1.5,4.5 L1.5,10.5 C1.5,11.325 2.175,12 3,12 L9,12 C9.825,12 10.5,11.325 10.5,10.5 L10.5,4.5 L1.5,4.5 Z"></path>
                    <path d="M9,2.25 L9,0.75 C9,0.3 8.7,0 8.25,0 L3.75,0 C3.3,0 3,0.3 3,0.75 L3,2.25 L0,2.25 L0,3.75 L12,3.75 L12,2.25 L9,2.25 Z M7.5,2.25 L4.5,2.25 L4.5,1.5 L7.5,1.5 L7.5,2.25 Z"></path>
                </g>
            </g>
        </g>
    </g>
</svg>