
<svg width="12px" height="8px" viewBox="0 0 12 8" version="1.1" xmlns="http://www.w3.org/2000/svg" xmlns:xlink="http://www.w3.org/1999/xlink">
    <g stroke="none" stroke-width="1" fill-rule="evenodd">
        <g transform="translate(-259.000000, -1233.000000)" >
            <g transform="translate(259.000000, 1233.000000)">
                <path d="M5.99962498,0 C5.7551117,0 5.52559924,0.106 5.38534162,0.284666667 L0.135056495,6.95133333 C-0.0254522216,7.15466667 -0.0434531991,7.42066667 0.0840537253,7.64133333 C0.213810772,7.862 0.469574662,8 0.749339855,8 L11.2506601,8 C11.5304253,8 11.7869393,7.862 11.9159463,7.64133333 C12.0434532,7.42066667 12.0254522,7.15466667 11.8649435,6.95133333 L6.61465838,0.284666667 C6.4751508,0.106 6.24563834,0 6.00112506,0 C6.00037502,0 6.00037502,0 5.99962498,0 C6.00037502,0 6.00037502,0 5.99962498,0 Z"></path>
            </g>
        </g>
    </g>
</svg>