
<svg width="20px" height="19px" viewBox="0 0 20 19" version="1.1" xmlns="http://www.w3.org/2000/svg" xmlns:xlink="http://www.w3.org/1999/xlink">
    <g stroke="none" stroke-width="1" fill-rule="evenodd">
        <g transform="translate(-155.000000, -1272.000000)">
            <g transform="translate(155.000000, 1272.000000)">
                <g>
                    <path d="M10,0 C4.775,0 0.5,4.275 0.5,9.5 C0.5,14.725 4.775,19 10,19 C15.225,19 19.5,14.725 19.5,9.5 C19.5,4.275 15.225,0 10,0 Z M10,16.625 C6.08125,16.625 2.875,13.41875 2.875,9.5 C2.875,5.58125 6.08125,2.375 10,2.375 C13.91875,2.375 17.125,5.58125 17.125,9.5 C17.125,13.41875 13.91875,16.625 10,16.625 Z" opacity="0.5" opacity="0.400000006"></path>
                    <polygon points="10.9 5 8.5 5 8.5 11 14.5 11 14.5 8.6 10.9 8.6"></polygon>
                </g>
            </g>
        </g>
    </g>
</svg>