
<svg width="22px" height="22px" viewBox="0 0 22 22" version="1.1" xmlns="http://www.w3.org/2000/svg" xmlns:xlink="http://www.w3.org/1999/xlink">
    <g stroke="none" stroke-width="1" fill-rule="evenodd">
        <g transform="translate(-222.000000, -1271.000000)">
            <g transform="translate(222.000000, 1271.000000)">
                <g >
                    <path d="M20.625,1.375 L16.5,1.375 L16.5,4.125 L19.25,4.125 L19.25,19.25 L2.75,19.25 L2.75,4.125 L5.5,4.125 L5.5,1.375 L1.375,1.375 C0.55,1.375 0,1.925 0,2.75 L0,20.625 C0,21.45 0.55,22 1.375,22 L20.625,22 C21.45,22 22,21.45 22,20.625 L22,2.75 C22,1.925 21.45,1.375 20.625,1.375 Z" fill="#9BA5B0" opacity="0.400000006"></path>
                    <rect fill="#9BA5B0" opacity="0.4" x="6.875" y="0" width="8.25" height="5.5"></rect>
                    <rect x="5.5" y="8.25" width="11" height="2.75"></rect>
                    <rect x="5.5" y="13.75" width="11" height="2.75"></rect>
                </g>
            </g>
        </g>
    </g>
</svg>