
<svg width="12px" height="12px" viewBox="0 0 12 12" version="1.1" xmlns="http://www.w3.org/2000/svg" xmlns:xlink="http://www.w3.org/1999/xlink">
    <g fill="#051D39" stroke="none" stroke-width="1" fill-rule="evenodd">
        <g transform="translate(-148.000000, -1151.000000)">
            <g transform="translate(148.000000, 1151.000000)">
                <g>
                    <path d="M11.35125,5.088 C10.374,4.8435 9.9105,3.7245 10.42875,2.86125 C10.67025,2.45925 10.5975,2.11275 10.35825,1.87425 L10.12575,1.64175 C9.88725,1.40325 9.54075,1.3305 9.13875,1.57125 C8.27475,2.0895 7.15575,1.626 6.912,0.64875 C6.79875,0.1935 6.50175,0 6.16425,0 L5.83575,0 C5.49825,0 5.202,0.1935 5.088,0.64875 C4.8435,1.626 3.7245,2.0895 2.86125,1.57125 C2.45925,1.32975 2.112,1.4025 1.8735,1.641 L1.641,1.8735 C1.4025,2.112 1.32975,2.45925 1.57125,2.86125 C2.0895,3.72525 1.626,4.84425 0.64875,5.088 C0.195,5.20125 0,5.4975 0,5.83575 L0,6.16425 C0,6.50175 0.1935,6.798 0.64875,6.912 C1.626,7.1565 2.0895,8.2755 1.57125,9.13875 C1.32975,9.54075 1.4025,9.88725 1.64175,10.12575 L1.87425,10.35825 C2.1135,10.5975 2.46075,10.6695 2.86125,10.42875 C3.72525,9.9105 4.84425,10.374 5.088,11.35125 C5.20125,11.8065 5.49825,12 5.83575,12 L6.16425,12 C6.50175,12 6.798,11.8065 6.912,11.35125 C7.1565,10.374 8.2755,9.9105 9.13875,10.42875 C9.54,10.6695 9.8865,10.5975 10.12575,10.35825 L10.35825,10.12575 C10.59675,9.88725 10.6695,9.54075 10.42875,9.13875 C9.9105,8.27475 10.374,7.15575 11.35125,6.912 C11.8065,6.79875 12,6.50175 12,6.16425 L12,5.83575 C12,5.4975 11.805,5.20125 11.35125,5.088 Z M6,8.25 C4.75725,8.25 3.75,7.24275 3.75,6 C3.75,4.75725 4.75725,3.75 6,3.75 C7.24275,3.75 8.25,4.75725 8.25,6 C8.25,7.24275 7.24275,8.25 6,8.25 Z" fill-rule="nonzero"></path>
                </g>
            </g>
        </g>
    </g>
</svg>