
<svg width="16px" height="16px" viewBox="0 0 16 16" version="1.1" xmlns="http://www.w3.org/2000/svg" xmlns:xlink="http://www.w3.org/1999/xlink">
    <g fill="#0277E7" stroke="none" stroke-width="1" fill-rule="evenodd">
        <g transform="translate(-120.000000, -719.000000)">
            <g transform="translate(120.000000, 717.000000)">
                <g transform="translate(0.000000, 2.000000)">
                    <path d="M6,0 L1,0 C0.44771525,-3.38176876e-17 6.76353751e-17,0.44771525 0,1 L0,6 C6.76353751e-17,6.55228475 0.44771525,7 1,7 L6,7 C6.55228475,7 7,6.55228475 7,6 L7,1 C7,0.44771525 6.55228475,3.38176876e-17 6,0 Z M5,5 L2,5 L2,2 L5,2 L5,5 Z" fill-rule="nonzero"></path>
                    <path d="M15,9 L10,9 C9.44771525,9 9,9.44771525 9,10 L9,15 C9,15.5522847 9.44771525,16 10,16 L15,16 C15.5522847,16 16,15.5522847 16,15 L16,10 C16,9.44771525 15.5522847,9 15,9 Z M14,14 L11,14 L11,11 L14,11 L14,14 Z" fill-rule="nonzero"></path>
                    <path d="M6,9 L1,9 C0.44771525,9 6.76353751e-17,9.44771525 0,10 L0,15 C6.76353751e-17,15.5522847 0.44771525,16 1,16 L6,16 C6.55228475,16 7,15.5522847 7,15 L7,10 C7,9.44771525 6.55228475,9 6,9 Z M5,14 L2,14 L2,11 L5,11 L5,14 Z" fill-rule="nonzero"></path>
                    <path d="M12.5,7 C12.2348052,6.99994336 11.9804927,6.89454937 11.793,6.707 L9.293,4.207 C8.90261806,3.81650015 8.90261806,3.18349985 9.293,2.793 L11.793,0.293 C12.1834999,-0.0973819383 12.8165001,-0.0973819383 13.207,0.293 L15.707,2.793 C16.0973819,3.18349985 16.0973819,3.81650015 15.707,4.207 L13.207,6.707 C13.0195073,6.89454937 12.7651948,6.99994336 12.5,7 Z" opacity="0.5"></path>
                </g>
            </g>
        </g>
    </g>
</svg>