
<svg width="24px" height="24px" viewBox="0 0 24 24" version="1.1" xmlns="http://www.w3.org/2000/svg" xmlns:xlink="http://www.w3.org/1999/xlink">
    <g fill="#0277E7" stroke="none" stroke-width="1" fill-rule="evenodd">
        <g transform="translate(-897.000000, -628.000000)">
            <g transform="translate(897.000000, 625.000000)">
                <g transform="translate(0.000000, 3.000000)">
                    <path d="M20.948,5.684 C20.812,5.275 20.43,5 20,5 L17,5 L17,7 L19.279,7 L21.612,14 L16,14 L16,18 L8,18 L8,14 L2.387,14 L4.72,7 L7,7 L7,5 L4,5 C3.57,5 3.188,5.275 3.052,5.683 L0.051,14.686 C0.017,14.787 0,14.893 0,15 L0,23 C0,23.552 0.448,24 1,24 L23,24 C23.552,24 24,23.552 24,23 L24,15 C24,14.893 23.983,14.787 23.949,14.686 L20.948,5.684 Z" ></path>
                    <polygonopacity="0.5" points="13 11 13 5 16 5 12 0 8 5 11 5 11 11"></polygon>
                </g>
            </g>
        </g>
    </g>
</svg>