
<svg width="16px" height="16px" viewBox="0 0 16 16" version="1.1" xmlns="http://www.w3.org/2000/svg" xmlns:xlink="http://www.w3.org/1999/xlink">
    <g fill="#0277E7" stroke="none" stroke-width="1" fill-rule="evenodd">
        <g transform="translate(-398.000000, -460.000000)">
            <g transform="translate(398.000000, 460.000000)">
                <g >
                    <path d="M15,4 L1,4 C0.4,4 0,4.4 0,5 L0,15 C0,15.6 0.4,16 1,16 L15,16 C15.6,16 16,15.6 16,15 L16,5 C16,4.4 15.6,4 15,4 Z M11.1,14 L4.9,14 C4.5,12.6 3.4,11.5 2,11.1 L2,8.9 C3.4,8.5 4.5,7.4 4.9,6 L11.2,6 C11.6,7.4 12.7,8.5 14.1,8.9 L14.1,11.2 C12.6,11.5 11.5,12.6 11.1,14 Z" fill-rule="nonzero"></path>
                    <circle cx="8" cy="10" r="2"></circle>
                    <rectopacity="0.5" x="2" y="0" width="12" height="2"></rect>
                </g>
            </g>
        </g>
    </g>
</svg>