
<svg width="16px" height="14px" viewBox="0 0 16 14" version="1.1" xmlns="http://www.w3.org/2000/svg" xmlns:xlink="http://www.w3.org/1999/xlink">
    <g fill="#0277E7" stroke="none" stroke-width="1" fill-rule="evenodd">
        <g transform="translate(-398.000000, -716.000000)">
            <g transform="translate(398.000000, 714.000000)">
                <g transform="translate(0.000000, 2.000000)">
                    <path d="M15,4 L1,4 C0.448,4 0,3.552 0,3 L0,1 C0,0.448 0.448,0 1,0 L15,0 C15.552,0 16,0.448 16,1 L16,3 C16,3.552 15.552,4 15,4 Z" ></path>
                    <path d="M15,9 L1,9 C0.448,9 0,8.552 0,8 L0,8 C0,7.448 0.448,7 1,7 L15,7 C15.552,7 16,7.448 16,8 L16,8 C16,8.552 15.552,9 15,9 Z" opacity="0.5"></path>
                    <path d="M15,14 L1,14 C0.448,14 0,13.552 0,13 L0,13 C0,12.448 0.448,12 1,12 L15,12 C15.552,12 16,12.448 16,13 L16,13 C16,13.552 15.552,14 15,14 Z" opacity="0.5"></path>
                </g>
            </g>
        </g>
    </g>
</svg>