
<svg width="16px" height="16px" viewBox="0 0 16 16" version="1.1" xmlns="http://www.w3.org/2000/svg" xmlns:xlink="http://www.w3.org/1999/xlink">
    <g fill="#0277E7" stroke="none" stroke-width="1" fill-rule="evenodd">
        <g transform="translate(-120.000000, -588.000000)">
            <g transform="translate(120.000000, 588.000000)">
                <g>
                    <path d="M5.249,7.438 L5.811,7.888 L6.4,6.553 L9.4,8.8 C9.61983571,8.96491961 9.89785444,9.03209813 10.1687388,8.98575269 C10.4396231,8.93940726 10.6794953,8.78362311 10.832,8.555 L15.387,1.723 L13.723,0.613 L9.754,6.565 L6.6,4.2 C6.35639006,4.01724724 6.04277862,3.95546403 5.74805541,4.03216215 C5.45333219,4.10886026 5.20962134,4.31567979 5.086,4.594 L4.016,7 C4.46436194,7.00431436 4.89839397,7.15849606 5.249,7.438 Z" ></path>
                    <polygon points="3.299 11 2.239 11 0.68 14.508 2.508 15.32 4.132 11.666"></polygon>
                    <path d="M9,14 C8.7728397,14.0001065 8.55241219,13.9228687 8.375,13.781 L3.649,10 L0,10 L0,7.99999989 L4,8 C4.2271603,7.9998935 4.44758781,8.0771313 4.625,8.219 L9.082,11.785 L14.343,8.628 L15.372,10.343 L9.515,13.857 C9.35948747,13.9505101 9.18146153,13.9999426 9,14 Z" opacity="0.5"></path>
                </g>
            </g>
        </g>
    </g>
</svg>