
<svg width="22px" height="24px" viewBox="0 0 22 24" version="1.1" xmlns="http://www.w3.org/2000/svg" xmlns:xlink="http://www.w3.org/1999/xlink">
    <g fill="#0277E7" stroke="none" stroke-width="1" fill-rule="evenodd">
        <g transform="translate(-644.000000, -271.000000)">
            <g transform="translate(644.000000, 268.000000)">
                <g transform="translate(0.000000, 3.000000)">
                    <g>
                        <path d="M22,22 L20,22 L20,2 L3,2 L3,0 L21,0 C21.552,0 22,0.448 22,1 L22,22 Z" opacity="0.5"></path>
                        <path d="M17,4 L1,4 C0.448,4 0,4.448 0,5 L0,23 C0,23.552 0.448,24 1,24 L17,24 C17.552,24 18,23.552 18,23 L18,5 C18,4.448 17.552,4 17,4 Z M10,19 L4,19 L4,17 L10,17 L10,19 Z M14,15 L4,15 L4,13 L14,13 L14,15 Z M14,11 L4,11 L4,9 L14,9 L14,11 Z" fill-rule="nonzero"></path>
                    </g>
                </g>
            </g>
        </g>
    </g>
</svg>