
<svg width="20px" height="24px" viewBox="0 0 20 24" version="1.1" xmlns="http://www.w3.org/2000/svg" xmlns:xlink="http://www.w3.org/1999/xlink">
    <g fill="#0277E7" stroke="none" stroke-width="1" fill-rule="evenodd">
        <g transform="translate(-644.000000, -429.000000)">
            <g transform="translate(644.000000, 423.000000)">
                <g transform="translate(0.000000, 6.000000)">
                    <path d="M13.461,14.023 C12.424,14.632 11.258,15 10,15 C8.742,15 7.576,14.632 6.539,14.023 C2.894,14.262 0,17.296 0,21 L0,22.73 L0.695,22.953 C0.829,22.995 4.038,24 10,24 C15.962,24 19.171,22.995 19.305,22.953 L20,22.73 L20,21 C20,17.296 17.106,14.262 13.461,14.023 Z" opacity="0.5"></path>
                    <path d="M10,13 C13.379,13 16,9.237 16,6 C16,2.691 13.309,0 10,0 C6.691,0 4,2.691 4,6 C4,9.237 6.621,13 10,13 Z" ></path>
                </g>
            </g>
        </g>
    </g>
</svg>