
<svg width="22px" height="24px" viewBox="0 0 22 24" version="1.1" xmlns="http://www.w3.org/2000/svg" xmlns:xlink="http://www.w3.org/1999/xlink">
    <g fill="#0277E7" stroke="none" stroke-width="1" fill-rule="evenodd">
        <g transform="translate(-644.000000, -376.000000)">
            <g transform="translate(644.000000, 371.000000)">
                <g transform="translate(0.000000, 5.000000)">
                    <path d="M21,8 L1,8 C0.44771525,8 0,8.44771525 0,9 L0,23 C0,23.5522847 0.44771525,24 1,24 L21,24 C21.5522847,24 22,23.5522847 22,23 L22,9 C22,8.44771525 21.5522847,8 21,8 Z M16,15 C16,15.5522847 15.5522847,16 15,16 L7,16 C6.44771525,16 6,15.5522847 6,15 L6,12 L8,12 L8,14 L14,14 L14,12 L16,12 L16,15 Z" fill-rule="nonzero"></path>
                    <rectopacity="0.5" x="3" y="4" width="16" height="2"></rect>
                    <rectopacity="0.5" x="6" y="0" width="10" height="2"></rect>
                </g>
            </g>
        </g>
    </g>
</svg>