
<svg width="32px" height="31px" viewBox="0 0 32 31" version="1.1" xmlns="http://www.w3.org/2000/svg" xmlns:xlink="http://www.w3.org/1999/xlink">
    <g fill="#0277E7" stroke="none" stroke-width="1" fill-rule="evenodd">
        <g transform="translate(-897.000000, -474.000000)">
            <g transform="translate(897.000000, 474.000000)">
                <g>
                    <g>
                        <path d="M16,5.2 C14.5272407,5.2 13.3333333,4.03594035 13.3333333,2.6 C13.3333333,1.16405965 14.5272407,0 16,0 C17.4727593,0 18.6666667,1.16405965 18.6666667,2.6 C18.6666667,4.03594035 17.4727593,5.2 16,5.2 Z M29.3333333,13 C27.860574,13 26.6666667,11.8359403 26.6666667,10.4 C26.6666667,8.96405965 27.860574,7.8 29.3333333,7.8 C30.8060927,7.8 32,8.96405965 32,10.4 C32,11.8359403 30.8060927,13 29.3333333,13 Z M2.66666667,13 C1.19390733,13 0,11.8359403 0,10.4 C0,8.96405965 1.19390733,7.8 2.66666667,7.8 C4.139426,7.8 5.33333333,8.96405965 5.33333333,10.4 C5.33333333,11.8359403 4.139426,13 2.66666667,13 Z" opacity="0.5"></path>
                        <path d="M24,31 L8,31 C7.44771525,31 7,30.5522847 7,30 L7,27.9026667 C7,26.288 7.927,24.828 9.36571429,24.2106667 C10.8172857,23.5866667 12.9837143,23 16,23 C19.0162857,23 21.1827143,23.5866667 22.6342857,24.2106667 C24.073,24.828 25,26.288 25,27.9026667 L25,30 C25,30.5522847 24.5522847,31 24,31 Z M11,15.8888889 C11,13.189 13.23875,11 16,11 C18.76125,11 21,13.189 21,15.8888889 C21,18.5887778 18.76125,22 16,22 C13.23875,22 11,18.5887778 11,15.8888889 Z"></path>
                    </g>
                </g>
            </g>
        </g>
    </g>
</svg>