<svg width="16px" height="16px" viewBox="0 0 16 16" version="1.1" xmlns="http://www.w3.org/2000/svg" xmlns:xlink="http://www.w3.org/1999/xlink">
    <g fill="#0277E7" stroke="none" stroke-width="1" fill-rule="evenodd">
        <g transform="translate(-120.000000, -395.000000)">
            <g transform="translate(120.000000, 393.000000)">
                <g transform="translate(0.000000, 2.000000)">
                    <path d="M14,3 L14,1 C14,0.448 13.552,0 13,0 L3,0 C2.448,0 2,0.448 2,1 L2,3 L0,6 L16,6 L14,3 Z" opacity="0.5"></path>
                    <path d="M2,8 L2,15 C2,15.552 2.448,16 3,16 L6,16 L6,12 L10,12 L10,16 L13,16 C13.552,16 14,15.552 14,15 L14,8 L2,8 Z" ></path>
                </g>
            </g>
        </g>
    </g>
</svg>