
<svg width="16px" height="14px" viewBox="0 0 16 14" version="1.1" xmlns="http://www.w3.org/2000/svg" xmlns:xlink="http://www.w3.org/1999/xlink">
    <g fill="#0277E7" stroke="none" stroke-width="1" fill-rule="evenodd">
        <g transform="translate(-398.000000, -396.000000)">
            <g transform="translate(398.000000, 395.000000)">
                <g>
                    <path d="M14.864,10.216 L12.307,9.577 C12.1192778,9.52997475 11.9755487,9.37884494 11.938,9.189 L11.747,8.226 C12.8141203,7.73830615 13.4990021,6.6732817 13.5,5.5 L13.5,4.126 C13.5251976,2.47300325 12.2425055,1.09415337 10.592,1 C9.53338872,0.96897116 8.53685167,1.49840522 7.97,2.393 C8.62913472,3.15228908 8.9945311,4.12254062 9,5.128 C8.94051287,5.98731261 9.14422219,6.84435679 9.584,7.585 C9.80064875,7.93203827 9.86614908,8.35250958 9.76532646,8.74900301 C9.66450384,9.14549645 9.40610739,9.48360543 9.05,9.685 L9.187,9.725 C10.2589528,10.0348534 10.9976502,11.0151656 11,12.131 L11,14.5 C10.9983428,14.6707198 10.9672189,14.8398715 10.908,15 L15.5,15 C15.7761424,15 16,14.7761424 16,14.5 L16,11.671 C15.9999245,10.9828354 15.5315951,10.3829946 14.864,10.216 L14.864,10.216 Z" opacity="0.5"></path>
                    <path d="M8.912,10.689 L6.755,10.073 C6.59537112,10.0274874 6.46873519,9.90572206 6.417,9.748 L6.247,9.226 C7.03459484,9.27798621 7.82320057,9.14083739 8.547,8.826 C8.67149944,8.76147887 8.76318347,8.64764314 8.79969283,8.51225425 C8.8362022,8.37686535 8.81418114,8.23236757 8.739,8.114 C8.1996678,7.21603889 7.94223083,6.17688532 8,5.131 C8.02404505,3.48765644 6.75866638,2.11247399 5.119,2 C4.30293922,1.96760384 3.50894286,2.26931409 2.9203266,2.83547273 C2.33171034,3.40163136 1.99935722,4.1832967 2,5 C2.07675632,6.08898737 1.8200333,7.17552568 1.264,8.115 C1.18923622,8.23341725 1.16756118,8.37776136 1.20424827,8.51291432 C1.24093536,8.64806729 1.33262149,8.76163966 1.457,8.826 C2.18079943,9.14083739 2.96940516,9.27798621 3.757,9.226 L3.587,9.748 C3.53526481,9.90572206 3.40862888,10.0274874 3.249,10.073 L1.092,10.689 C0.446531394,10.8714458 0.000646643778,11.4602424 0,12.131 L0,14.5 C8.93288388e-17,14.7761424 0.223857625,15 0.5,15 L9.5,15 C9.77614237,15 10,14.7761424 10,14.5 L10,12.131 C9.99986193,11.4613626 9.55588282,10.8729271 8.912,10.689 Z" ></path>
                </g>
            </g>
        </g>
    </g>
</svg>