
<svg width="386px" height="114px" viewBox="0 0 386 114" version="1.1" xmlns="http://www.w3.org/2000/svg" xmlns:xlink="http://www.w3.org/1999/xlink">
    <defs>
        <linearGradient x1="-1.11022302e-14%" y1="50%" x2="100%" y2="50%" id="linearGradient-1">
            <stop stop-color="#FFFFFF" stop-opacity="0" offset="0%"></stop>
            <stop stop-color="#0A1F44" offset="100%"></stop>
        </linearGradient>
        <linearGradient x1="100%" y1="50%" x2="-2.22044605e-14%" y2="50%" id="linearGradient-2">
            <stop stop-color="#FFFFFF" stop-opacity="0" offset="0%"></stop>
            <stop stop-color="#0A1F44" offset="100%"></stop>
        </linearGradient>
        <linearGradient x1="0%" y1="16.5289256%" x2="100%" y2="83.4710744%" id="linearGradient-3">
            <stop stop-color="#BAC2CF" offset="0%"></stop>
            <stop stop-color="#0A1F44" offset="100%"></stop>
        </linearGradient>
    </defs>
    <g id="🚀-Styleguide---kuba" stroke="none" stroke-width="1" fill="none" fill-rule="evenodd">
        <g id="Illustrations" transform="translate(-122.000000, -616.000000)">
            <g id="illu" transform="translate(121.000000, 616.000000)">
                <g id="floor" transform="translate(0.000000, 110.000000)" fill-rule="nonzero" opacity="0.200000003">
                    <path d="M2,3.5 C1.17157288,3.5 0.5,2.82842712 0.5,2 C0.5,1.17157288 1.17157288,0.5 2,0.5 L122,0.5 C122.828427,0.5 123.5,1.17157288 123.5,2 C123.5,2.82842712 122.828427,3.5 122,3.5 L2,3.5 Z" id="Path-Copy" fill="url(#linearGradient-1)"></path>
                    <path d="M265.5,4 C264.671573,4 264,3.32842712 264,2.5 C264,1.67157288 264.671573,1 265.5,1 L385.5,1 C386.328427,1 387,1.67157288 387,2.5 C387,3.32842712 386.328427,4 385.5,4 L265.5,4 Z" id="Path-Copy-2" fill="url(#linearGradient-2)"></path>
                </g>
                <g id="webpage" transform="translate(125.000000, 0.000000)" fill="#0A1F44" fill-opacity="0.03">
                    <rect id="Rectangle" x="0" y="0" width="120" height="104"></rect>
                </g>
                <g id="webpage-copy" transform="translate(133.000000, 8.000000)">
                    <path d="M32.5,90.5 L32.5,57.5 L13.5,57.5 L13.5,90.5 L32.5,90.5 Z M35.5,90.5 L106.5,90.5 L106.5,57.5 L35.5,57.5 L35.5,90.5 Z M13.5,54.5 L106.5,54.5 L106.5,41.5 L13.5,41.5 L13.5,54.5 Z M12,38.5 L108,38.5 C108.828427,38.5 109.5,39.1715729 109.5,40 L109.5,92 C109.5,92.8284271 108.828427,93.5 108,93.5 L12,93.5 C11.1715729,93.5 10.5,92.8284271 10.5,92 L10.5,40 C10.5,39.1715729 11.1715729,38.5 12,38.5 Z M16,15.5 C15.1715729,15.5 14.5,14.8284271 14.5,14 C14.5,13.1715729 15.1715729,12.5 16,12.5 L24,12.5 C24.8284271,12.5 25.5,13.1715729 25.5,14 C25.5,14.8284271 24.8284271,15.5 24,15.5 L16,15.5 Z M36,15.5 C35.1715729,15.5 34.5,14.8284271 34.5,14 C34.5,13.1715729 35.1715729,12.5 36,12.5 L44,12.5 C44.8284271,12.5 45.5,13.1715729 45.5,14 C45.5,14.8284271 44.8284271,15.5 44,15.5 L36,15.5 Z M82,15.5 C81.1715729,15.5 80.5,14.8284271 80.5,14 C80.5,13.1715729 81.1715729,12.5 82,12.5 L104,12.5 C104.828427,12.5 105.5,13.1715729 105.5,14 C105.5,14.8284271 104.828427,15.5 104,15.5 L82,15.5 Z" id="Combined-Shape" fill="url(#linearGradient-3)" fill-rule="nonzero" opacity="0.200000003"></path>
                    <path d="M0,28 L120,28" id="Path" stroke="#0A1F44" stroke-width="3" stroke-linecap="round" stroke-linejoin="round"></path>
                    <rect id="Rectangle" stroke="#0A1F44" stroke-width="3" stroke-linecap="round" stroke-linejoin="round" x="0" y="0" width="120" height="104"></rect>
                </g>
                <g id="face" transform="translate(173.000000, 78.000000)">
                    <path d="M22,3 C22,3.07058824 22,3.14117647 22,3.21176471 C22,6.38823529 24.6117647,9 27.7882353,9 C30.9647059,9 33.5764706,6.38823529 33.5764706,3.21176471 C33.5764706,3.14117647 33.5764706,3.07058824 33.5764706,3" id="Path" stroke="#FFFFFF" stroke-width="3" stroke-linecap="round"></path>
                    <circle id="Oval" fill="#FFFFFF" fill-rule="nonzero" cx="3" cy="3" r="3"></circle>
                    <circle id="Oval-Copy" fill="#FFFFFF" fill-rule="nonzero" cx="52" cy="3" r="3"></circle>
                    <path d="M25,6 C25,6.07058824 25,6.14117647 25,6.21176471 C25,9.38823529 27.6117647,12 30.7882353,12 C33.9647059,12 36.5764706,9.38823529 36.5764706,6.21176471 C36.5764706,6.14117647 36.5764706,6.07058824 36.5764706,6" id="Path" stroke="#374759" stroke-width="3" stroke-linecap="round"></path>
                    <circle id="Oval" fill="#0A1F44" fill-rule="nonzero" cx="6" cy="6" r="3"></circle>
                    <circle id="Oval-Copy" fill="#0A1F44" fill-rule="nonzero" cx="55" cy="6" r="3"></circle>
                </g>
            </g>
        </g>
    </g>
</svg>