
<svg width="223px" height="117px" viewBox="0 0 223 117" version="1.1" xmlns="http://www.w3.org/2000/svg" xmlns:xlink="http://www.w3.org/1999/xlink">
    <defs>
        <linearGradient x1="-1.11022302e-14%" y1="50%" x2="100%" y2="50%" id="linearGradient-1">
            <stop stop-color="#0A1F44" offset="0%"></stop>
            <stop stop-color="#FFFFFF" stop-opacity="0" offset="100%"></stop>
        </linearGradient>
        <linearGradient x1="-1.11022302e-14%" y1="50%" x2="100%" y2="50%" id="linearGradient-2">
            <stop stop-color="#FFFFFF" stop-opacity="0" offset="0%"></stop>
            <stop stop-color="#0A1F44" offset="100%"></stop>
        </linearGradient>
        <linearGradient x1="0%" y1="12.3648312%" x2="100%" y2="87.6351688%" id="linearGradient-3">
            <stop stop-color="#BAC2CF" offset="0%"></stop>
            <stop stop-color="#0A1F44" offset="100%"></stop>
        </linearGradient>
    </defs>
    <g id="🚀-Styleguide---kuba" stroke="none" stroke-width="1" fill="none" fill-rule="evenodd">
        <g id="Illustrations" transform="translate(-203.000000, -1432.000000)">
            <g id="illu-copy" transform="translate(202.000000, 1432.000000)">
                <g id="receipt-list-42" transform="translate(0.413437, 0.000000)">
                    <polygon id="Path" fill-opacity="0.03" fill="#0A1F44" points="148.25555 106.944265 60.1682223 106.944265 60.1682223 0.168754398 74.8494437 9.37353976 89.530665 0.168754398 104.211886 9.37353976 118.893108 0.168754398 133.574329 9.37353976 148.25555 0.168754398"></polygon>
                    <polygon id="Path-Copy-3" stroke="#0A1F44" stroke-width="3" stroke-linecap="round" stroke-linejoin="round" points="156.25555 114.944265 68.1682223 114.944265 68.1682223 8.1687544 82.8494437 17.3735398 97.530665 8.1687544 112.211886 17.3735398 126.893108 8.1687544 141.574329 17.3735398 156.25555 8.1687544"></polygon>
                    <rect id="Rectangle" fill="url(#linearGradient-1)" fill-rule="nonzero" opacity="0.200000003" x="163.586563" y="114" width="60" height="3" rx="1.5"></rect>
                    <rect id="Rectangle-Copy-3" fill="url(#linearGradient-2)" fill-rule="nonzero" opacity="0.200000003" x="0.586563307" y="114" width="60" height="3" rx="1.5"></rect>
                    <g id="face" transform="translate(86.586563, 90.000000)">
                        <path d="M22,3 C22,3.07058824 22,3.14117647 22,3.21176471 C22,6.38823529 24.6117647,9 27.7882353,9 C30.9647059,9 33.5764706,6.38823529 33.5764706,3.21176471 C33.5764706,3.14117647 33.5764706,3.07058824 33.5764706,3" id="Path" stroke="#FFFFFF" stroke-width="3" stroke-linecap="round"></path>
                        <circle id="Oval" fill="#FFFFFF" fill-rule="nonzero" cx="3" cy="3" r="3"></circle>
                        <circle id="Oval-Copy" fill="#FFFFFF" fill-rule="nonzero" cx="52" cy="3" r="3"></circle>
                        <path d="M25,6 C25,6.07058824 25,6.14117647 25,6.21176471 C25,9.38823529 27.6117647,12 30.7882353,12 C33.9647059,12 36.5764706,9.38823529 36.5764706,6.21176471 C36.5764706,6.14117647 36.5764706,6.07058824 36.5764706,6" id="Path" stroke="#374759" stroke-width="3" stroke-linecap="round"></path>
                        <circle id="Oval" fill="#0A1F44" fill-rule="nonzero" cx="6" cy="6" r="3"></circle>
                        <circle id="Oval-Copy" fill="#0A1F44" fill-rule="nonzero" cx="55" cy="6" r="3"></circle>
                    </g>
                    <g id="Group" transform="translate(84.519749, 32.067417)" fill="url(#linearGradient-3)" fill-rule="nonzero" opacity="0.200000003">
                        <path d="M2,3.42047854 C1.17157288,3.42047854 0.5,2.74890566 0.5,1.92047854 C0.5,1.09205141 1.17157288,0.420478536 2,0.420478536 L31.3624427,0.420478536 C32.1908698,0.420478536 32.8624427,1.09205141 32.8624427,1.92047854 C32.8624427,2.74890566 32.1908698,3.42047854 31.3624427,3.42047854 L2,3.42047854 Z M2,25.5119634 C1.17157288,25.5119634 0.5,24.8403905 0.5,24.0119634 C0.5,23.1835363 1.17157288,22.5119634 2,22.5119634 L31.3624427,22.5119634 C32.1908698,22.5119634 32.8624427,23.1835363 32.8624427,24.0119634 C32.8624427,24.8403905 32.1908698,25.5119634 31.3624427,25.5119634 L2,25.5119634 Z M2,47.6034483 C1.17157288,47.6034483 0.5,46.9318754 0.5,46.1034483 C0.5,45.2750212 1.17157288,44.6034483 2,44.6034483 L31.3624427,44.6034483 C32.1908698,44.6034483 32.8624427,45.2750212 32.8624427,46.1034483 C32.8624427,46.9318754 32.1908698,47.6034483 31.3624427,47.6034483 L2,47.6034483 Z M46.043664,47.6034483 C45.2152369,47.6034483 44.543664,46.9318754 44.543664,46.1034483 C44.543664,45.2750212 45.2152369,44.6034483 46.043664,44.6034483 L53.3842746,44.6034483 C54.2127018,44.6034483 54.8842746,45.2750212 54.8842746,46.1034483 C54.8842746,46.9318754 54.2127018,47.6034483 53.3842746,47.6034483 L46.043664,47.6034483 Z M46.043664,25.5119634 C45.2152369,25.5119634 44.543664,24.8403905 44.543664,24.0119634 C44.543664,23.1835363 45.2152369,22.5119634 46.043664,22.5119634 L53.3842746,22.5119634 C54.2127018,22.5119634 54.8842746,23.1835363 54.8842746,24.0119634 C54.8842746,24.8403905 54.2127018,25.5119634 53.3842746,25.5119634 L46.043664,25.5119634 Z M46.043664,3.42047854 C45.2152369,3.42047854 44.543664,2.74890566 44.543664,1.92047854 C44.543664,1.09205141 45.2152369,0.420478536 46.043664,0.420478536 L53.3842746,0.420478536 C54.2127018,0.420478536 54.8842746,1.09205141 54.8842746,1.92047854 C54.8842746,2.74890566 54.2127018,3.42047854 53.3842746,3.42047854 L46.043664,3.42047854 Z" id="Combined-Shape"></path>
                    </g>
                </g>
            </g>
        </g>
    </g>
</svg>