
<svg width="22px" height="15px" viewBox="0 0 22 15" version="1.1" xmlns="http://www.w3.org/2000/svg" xmlns:xlink="http://www.w3.org/1999/xlink">
    <g stroke="none" stroke-width="1" fill-rule="evenodd">
        <g transform="translate(-120.000000, -1274.000000)">
            <g transform="translate(120.000000, 1274.000000)">
                <g >
                    <path d="M21.0733333,0.224 C20.779133,0.0276956766 20.4189923,-0.043676325 20.0721618,0.0255897546 C19.7253312,0.0948558342 19.4202311,0.299084177 19.224,0.593333333 L12.1266667,11.2413333 L11.0106667,10.1253333 L9.50266667,12.392 L11.3906667,14.28 C11.6413104,14.5285996 11.9803134,14.6676531 12.3333333,14.6666667 C12.3773333,14.6666667 12.42,14.6666667 12.4666667,14.66 C12.8638302,14.6205765 13.2224472,14.4053084 13.444,14.0733333 L21.444,2.07333333 C21.6401767,1.7789709 21.7113378,1.41871578 21.6418187,1.0718705 C21.5722996,0.725025234 21.367799,0.420021708 21.0733333,0.224 Z" fill="#D0EDDF"></path>
                    <path d="M5.66666667,14.6666667 C5.31307358,14.6665912 4.97399031,14.5260658 4.724,14.276 L0.724,10.276 C0.377391221,9.94123404 0.238383204,9.44549614 0.360403791,8.97932357 C0.482424379,8.51315099 0.846484326,8.14909105 1.3126569,8.02707046 C1.77882948,7.90504987 2.27456737,8.04405789 2.60933333,8.39066667 L5.46,11.2413333 L12.5573333,0.593333333 C12.9660241,-0.0193345241 13.7939988,-0.184690673 14.4066666,0.224000033 C15.0193345,0.632690739 15.1846907,1.46066545 14.776,2.07333333 L6.776,14.0733333 C6.55613933,14.4075014 6.19786456,14.625305 5.8,14.6666667 C5.75333333,14.6666667 5.71066667,14.6666667 5.66666667,14.6666667 Z" fill="#36AB80"></path>
                </g>
            </g>
        </g>
    </g>
</svg>