
<svg width="20px" height="20px" viewBox="0 0 20 20" version="1.1" xmlns="http://www.w3.org/2000/svg" xmlns:xlink="http://www.w3.org/1999/xlink">
    <g fill="#051D39" stroke="none" stroke-width="1" fill-rule="evenodd">
        <g transform="translate(-505.000000, -988.000000)">
            <g transform="translate(503.000000, 986.000000)">
                <path d="M13.4142136,12 L15.7071068,9.70710678 C16.0976311,9.31658249 16.0976311,8.68341751 15.7071068,8.29289322 C15.3165825,7.90236893 14.6834175,7.90236893 14.2928932,8.29289322 L12,10.5857864 L9.70710678,8.29289322 C9.31658249,7.90236893 8.68341751,7.90236893 8.29289322,8.29289322 C7.90236893,8.68341751 7.90236893,9.31658249 8.29289322,9.70710678 L10.5857864,12 L8.29289322,14.2928932 C7.90236893,14.6834175 7.90236893,15.3165825 8.29289322,15.7071068 C8.68341751,16.0976311 9.31658249,16.0976311 9.70710678,15.7071068 L12,13.4142136 L14.2928932,15.7071068 C14.6834175,16.0976311 15.3165825,16.0976311 15.7071068,15.7071068 C16.0976311,15.3165825 16.0976311,14.6834175 15.7071068,14.2928932 L13.4142136,12 Z M12,22 C6.4771525,22 2,17.5228475 2,12 C2,6.4771525 6.4771525,2 12,2 C17.5228475,2 22,6.4771525 22,12 C22,17.5228475 17.5228475,22 12,22 Z"></path>
            </g>
        </g>
    </g>
</svg>