
<svg width="12px" height="14px" viewBox="0 0 12 14" version="1.1" xmlns="http://www.w3.org/2000/svg" xmlns:xlink="http://www.w3.org/1999/xlink">
    <g fill="#051D39" stroke="none" stroke-width="1" fill-rule="evenodd">
        <g transform="translate(-347.000000, -1077.000000)" fill-rule="nonzero">
            <g transform="translate(347.000000, 1077.000000)">
                <path d="M9.56085,6.31641 C10.52591,5.60877 11.12306,4.42833 10.9785,3.10878 C10.78094,1.30548 9.14325,-1e-05 7.32916,0 L3.61488617e-13,0 L3.61488617e-13,1 L1.44721,1.72361 C1.786,1.893 2,2.23926 2,2.61803 L2,11.38196 C2,11.76073 1.786,12.107 1.44721,12.27639 L3.61488617e-13,13 L3.61488617e-13,14 L7.82266,14 C9.92651,14 11.80305,12.45254 11.98452,10.35653 C12.14087,8.55075 11.09633,6.96788 9.56085,6.31641 Z M5,2 L6,2 C7.10455,2 8,2.89539 8,4 C8,5.10455 7.10455,6 6,6 L5,6 L5,2 Z M7,12 L5,12 L5,8 L7,8 C8.10455,8 9,8.89539 9,10 C9,11.10455 8.10455,12 7,12 Z"></path>
            </g>
        </g>
    </g>
</svg>