
<svg width="18px" height="14px" viewBox="0 0 18 14" version="1.1" xmlns="http://www.w3.org/2000/svg" xmlns:xlink="http://www.w3.org/1999/xlink">
    <g fill="#051D39" stroke="none" stroke-width="1" fill-rule="evenodd">
        <g transform="translate(-157.000000, -1034.000000)">
            <g transform="translate(154.000000, 1029.000000)">
                <path d="M4,13 C3.44771525,13 3,12.5522847 3,12 C3,11.4477153 3.44771525,11 4,11 L20,11 C20.5522847,11 21,11.4477153 21,12 C21,12.5522847 20.5522847,13 20,13 L4,13 Z M4,7 C3.44771525,7 3,6.55228475 3,6 C3,5.44771525 3.44771525,5 4,5 L20,5 C20.5522847,5 21,5.44771525 21,6 C21,6.55228475 20.5522847,7 20,7 L4,7 Z M4,19 C3.44771525,19 3,18.5522847 3,18 C3,17.4477153 3.44771525,17 4,17 L20,17 C20.5522847,17 21,17.4477153 21,18 C21,18.5522847 20.5522847,19 20,19 L4,19 Z"></path>
            </g>
        </g>
    </g>
</svg>