
<svg width="12px" height="12px" viewBox="0 0 12 12" version="1.1" xmlns="http://www.w3.org/2000/svg" xmlns:xlink="http://www.w3.org/1999/xlink">
    <g fill="#051D39" stroke="none" stroke-width="1" fill-rule="evenodd">
        <g transform="translate(-174.000000, -1151.000000)">
            <g transform="translate(174.000000, 1151.000000)">
                <path d="M5,5 L5,0.857142857 C5,0.383755929 5.44771525,0 6,0 C6.55228475,0 7,0.383755929 7,0.857142857 L7,5 L11.1428571,5 C11.6162441,5 12,5.44771525 12,6 C12,6.55228475 11.6162441,7 11.1428571,7 L7,7 L7,11.1428571 C7,11.6162441 6.55228475,12 6,12 C5.44771525,12 5,11.6162441 5,11.1428571 L5,7 L0.857142857,7 C0.383755929,7 0,6.55228475 0,6 C0,5.44771525 0.383755929,5 0.857142857,5 L5,5 Z"></path>
            </g>
        </g>
    </g>
</svg>