
<svg width="12px" height="12px" viewBox="0 0 12 12" version="1.1" xmlns="http://www.w3.org/2000/svg" xmlns:xlink="http://www.w3.org/1999/xlink">
    <g fill="#051D39" stroke="none" stroke-width="1" fill-rule="evenodd">
        <g transform="translate(-200.000000, -1151.000000)">
            <g transform="translate(200.000000, 1151.000000)">
                <path d="M6,0 C2.7,0 0,2.7 0,6 C0,9.3 2.7,12 6,12 C9.3,12 12,9.3 12,6 C12,2.7 9.3,0 6,0 Z M6,1.5 C6.975,1.5 7.875,1.8 8.625,2.325 L2.325,8.625 C1.8,7.875 1.5,6.975 1.5,6 C1.5,3.525 3.525,1.5 6,1.5 Z M6,10.5 C5.025,10.5 4.125,10.2 3.375,9.675 L9.675,3.375 C10.2,4.125 10.5,5.025 10.5,6 C10.5,8.475 8.475,10.5 6,10.5 Z" id="Shape-Copy"></path>
            </g>
        </g>
    </g>
</svg>