
<svg width="11px" height="12px" viewBox="0 0 11 12" version="1.1" xmlns="http://www.w3.org/2000/svg" xmlns:xlink="http://www.w3.org/1999/xlink">
    <g fill="#051D39" stroke="none" stroke-width="1" fill-rule="evenodd">
        <g transform="translate(-305.000000, -1151.000000)">
            <g transform="translate(304.000000, 1151.000000)">
                <path d="M7.75,3 L1.75,3 C1.3,3 1,3.3 1,3.75 L1,11.25 C1,11.7 1.3,12 1.75,12 L7.75,12 C8.2,12 8.5,11.7 8.5,11.25 L8.5,3.75 C8.5,3.3 8.2,3 7.75,3 Z"></path>
                <path d="M10.75,0 L3.25,0 L3.25,1.5 L10,1.5 L10,9.75 L11.5,9.75 L11.5,0.75 C11.5,0.3 11.2,0 10.75,0 Z"></path>
            </g>
        </g>
    </g>
</svg>