
<svg width="287px" height="129px" viewBox="0 0 287 129" version="1.1" xmlns="http://www.w3.org/2000/svg" xmlns:xlink="http://www.w3.org/1999/xlink">
    <defs>
        <linearGradient x1="-1.11022302e-14%" y1="50%" x2="100%" y2="50%" id="linearGradient-1">
            <stop stop-color="#FFFFFF" stop-opacity="0" offset="0%"></stop>
            <stop stop-color="#0A1F44" offset="100%"></stop>
        </linearGradient>
        <linearGradient x1="100%" y1="50%" x2="-2.22044605e-14%" y2="50%" id="linearGradient-2">
            <stop stop-color="#FFFFFF" stop-opacity="0" offset="0%"></stop>
            <stop stop-color="#0A1F44" offset="100%"></stop>
        </linearGradient>
        <linearGradient x1="0%" y1="36.6479667%" x2="100%" y2="63.3520333%" id="linearGradient-3">
            <stop stop-color="#BAC2CF" offset="0%"></stop>
            <stop stop-color="#0A1F44" offset="100%"></stop>
        </linearGradient>
    </defs>
    <g id="🚀-Styleguide---kuba" stroke="none" stroke-width="1" fill="none" fill-rule="evenodd">
        <g id="Illustrations" transform="translate(-171.000000, -1230.000000)">
            <g id="illu" transform="translate(171.000000, 1230.000000)">
                <g id="floor" transform="translate(0.000000, 126.000000)" fill-rule="nonzero" opacity="0.200000003">
                    <path d="M1.5,3 C0.671572875,3 0,2.32842712 0,1.5 C0,0.671572875 0.671572875,0 1.5,0 L121.5,0 C122.328427,0 123,0.671572875 123,1.5 C123,2.32842712 122.328427,3 121.5,3 L1.5,3 Z" id="Path-Copy" fill="url(#linearGradient-1)"></path>
                    <path d="M165.5,3 C164.671573,3 164,2.32842712 164,1.5 C164,0.671572875 164.671573,0 165.5,0 L285.5,0 C286.328427,0 287,0.671572875 287,1.5 C287,2.32842712 286.328427,3 285.5,3 L165.5,3 Z" id="Path-Copy-2" fill="url(#linearGradient-2)"></path>
                </g>
                <g id="bell" transform="translate(83.000000, 0.000000)">
                    <path d="M38.9811542,103 C14.8602914,101.091341 0.4,94.8342557 0.4,87.2 C0.4,77 15,74.2 15,56 C15,47.2 15,40 15,40 C15,18.6 33.6,-7.2475359e-13 55,-7.2475359e-13 C76.4,-7.2475359e-13 95,18.4 95,39.6 C95,39.6 95,47.2 95,56 C95,74.2 109.6,77 109.6,87.2 C109.6,94.8342557 95.1397086,101.091341 71.0188458,103 L71.6,103 C71.6,103.2 71.6,103.4 71.6,103.6 C71.6,112.6 64.2,120 55.2,120 C46.2,120 38.8,112.6 38.8,103.6 C38.8,103.4 38.8,103.2 38.8,103 L38.9811542,103 Z" id="Combined-Shape" fill="#051D39" opacity="0.0299999993"></path>
                    <path d="M42.3,110 L45.3,110 L45.3,110.6 C45.3,118.771573 52.0284271,125.5 60.2,125.5 C68.3715729,125.5 75.1,118.771573 75.1,110.6 L75.1,110 L78.1,110 L78.1,110.6 C78.1,120.428427 70.0284271,128.5 60.2,128.5 C50.3715729,128.5 42.3,120.428427 42.3,110.6 L42.3,110 Z" id="Path" fill="url(#linearGradient-3)" fill-rule="nonzero" opacity="0.200000003"></path>
                    <path d="M101.5,63 C101.5,70.3442667 103.670292,75.0713402 108.437939,80.6227109 C108.696908,80.92425 111.410938,83.9828862 112.143845,84.8757397 C114.823857,88.1406261 116.1,90.8406169 116.1,94.2 C116.1,105.021111 93.4235576,112.1 60,112.1 C26.5764424,112.1 3.9,105.021111 3.9,94.2 C3.9,90.8406169 5.17614283,88.1406261 7.856155,84.8757397 C8.58906204,83.9828862 11.3030917,80.92425 11.5620606,80.6227109 C16.3297084,75.0713402 18.5,70.3442667 18.5,63 L18.5,47 C18.5,24.7715729 37.7715729,5.5 60,5.5 C82.2298187,5.5 101.5,24.5728757 101.5,46.6 L101.5,63 Z M98.5,63 L98.5,46.6 C98.5,26.2366806 80.5798365,8.5 60,8.5 C39.4284271,8.5 21.5,26.4284271 21.5,47 L21.5,63 C21.5,71.1557333 19.0338051,76.5273084 13.8379394,82.5772891 C13.5456474,82.9176291 10.8641198,85.9396362 10.1749812,86.7791695 C7.89430112,89.5575753 6.9,91.6612614 6.9,94.2 C6.9,102.423334 28.2879644,109.1 60,109.1 C91.7120356,109.1 113.1,102.423334 113.1,94.2 C113.1,91.6612614 112.105699,89.5575753 109.825019,86.7791695 C109.13588,85.9396362 106.454353,82.9176291 106.162061,82.5772891 C100.966195,76.5273084 98.5,71.1557333 98.5,63 Z" id="Path" fill="#051D39"></path>
                    <path d="M52,84 C52,84.0705882 52,84.1411765 52,84.2117647 C52,87.3882353 54.6117647,90 57.7882353,90 C60.9647059,90 63.5764706,87.3882353 63.5764706,84.2117647 C63.5764706,84.1411765 63.5764706,84.0705882 63.5764706,84" id="Path" stroke="#FFFFFF" stroke-width="3" stroke-linecap="round"></path>
                    <circle id="Oval" fill="#FFFFFF" fill-rule="nonzero" cx="33" cy="84" r="3"></circle>
                    <circle id="Oval-Copy" fill="#FFFFFF" fill-rule="nonzero" cx="82" cy="84" r="3"></circle>
                    <path d="M53.5,87 C53.5,86.1715729 54.1715729,85.5 55,85.5 C55.8284271,85.5 56.5,86.1715729 56.5,87 L56.5,87.2117647 C56.5,89.5598082 58.4401918,91.5 60.7882353,91.5 C63.1362788,91.5 65.0764706,89.5598082 65.0764706,87.2117647 L65.0764706,87 C65.0764706,86.1715729 65.7480435,85.5 66.5764706,85.5 C67.4048977,85.5 68.0764706,86.1715729 68.0764706,87 L68.0764706,87.2117647 C68.0764706,91.2166624 64.793133,94.5 60.7882353,94.5 C56.7833376,94.5 53.5,91.2166624 53.5,87.2117647 L53.5,87 Z" id="Path" fill="#1E344D"></path>
                    <circle id="Oval" fill="#1E344D" cx="36" cy="87" r="3"></circle>
                    <circle id="Oval-Copy" fill="#1E344D" cx="85" cy="87" r="3"></circle>
                </g>
            </g>
        </g>
    </g>
</svg>