
<svg width="347px" height="129px" viewBox="0 0 347 129" version="1.1" xmlns="http://www.w3.org/2000/svg" xmlns:xlink="http://www.w3.org/1999/xlink">
    <defs>
        <linearGradient x1="-1.11022302e-14%" y1="50%" x2="100%" y2="50%" id="linearGradient-1">
            <stop stop-color="#FFFFFF" stop-opacity="0" offset="0%"></stop>
            <stop stop-color="#0A1F44" offset="100%"></stop>
        </linearGradient>
        <linearGradient x1="100%" y1="50%" x2="-2.22044605e-14%" y2="50%" id="linearGradient-2">
            <stop stop-color="#FFFFFF" stop-opacity="0" offset="0%"></stop>
            <stop stop-color="#0A1F44" offset="100%"></stop>
        </linearGradient>
        <linearGradient x1="14.1230071%" y1="0%" x2="85.8769929%" y2="100%" id="linearGradient-3">
            <stop stop-color="#BAC2CF" offset="0%"></stop>
            <stop stop-color="#0A1F44" offset="100%"></stop>
        </linearGradient>
    </defs>
    <g id="🚀-Styleguide---kuba" stroke="none" stroke-width="1" fill="none" fill-rule="evenodd">
        <g id="Illustrations" transform="translate(-141.000000, -414.000000)">
            <g id="illu" transform="translate(140.000000, 414.000000)">
                <g id="floor" transform="translate(0.000000, 125.000000)" fill-rule="nonzero" opacity="0.200000003">
                    <path d="M2,3.5 C1.17157288,3.5 0.5,2.82842712 0.5,2 C0.5,1.17157288 1.17157288,0.5 2,0.5 L122,0.5 C122.828427,0.5 123.5,1.17157288 123.5,2 C123.5,2.82842712 122.828427,3.5 122,3.5 L2,3.5 Z" id="Path-Copy" fill="url(#linearGradient-1)"></path>
                    <path d="M226.5,4 C225.671573,4 225,3.32842712 225,2.5 C225,1.67157288 225.671573,1 226.5,1 L346.5,1 C347.328427,1 348,1.67157288 348,2.5 C348,3.32842712 347.328427,4 346.5,4 L226.5,4 Z" id="Path-Copy-2" fill="url(#linearGradient-2)"></path>
                </g>
                <g id="lock" transform="translate(117.000000, 0.000000)">
                    <g fill="#F7F8F9" fill-rule="nonzero">
                        <path d="M73.5483871,42.5806452 L69.6774194,42.5806452 L69.6774194,25.1612903 C69.6774194,13.4029698 60.1454173,3.87096774 48.3870968,3.87096774 C36.6287763,3.87096774 27.0967742,13.4029698 27.0967742,25.1612903 L27.0967742,42.5806452 L23.2258065,42.5806452 L23.2258065,25.1612903 C23.2258065,11.2650934 34.4908998,4.35493935e-15 48.3870968,1.77635684e-15 C62.2832937,-8.02225669e-16 73.5483871,11.2650934 73.5483871,25.1612903 L73.5483871,42.5806452 Z" id="Path"></path>
                        <path d="M85.1612903,46.4516129 L11.6129032,46.4516129 C5.20192728,46.4580143 0.00640137867,51.6535402 0,58.0645161 L0,108.387097 C0.00640137867,114.798073 5.20192728,119.993599 11.6129032,120 L85.1612903,120 C91.5722663,119.993599 96.7677922,114.798073 96.7741935,108.387097 L96.7741935,58.0645161 C96.7677922,51.6535402 91.5722663,46.4580143 85.1612903,46.4516129 Z" id="Shape"></path>
                    </g>
                    <g transform="translate(9.000000, 8.000000)">
                        <path d="M71.8032787,38.3606557 L71.8032787,24.5901639 C71.8032787,11.5526223 61.2342629,0.983606557 48.1967213,0.983606557 L48.1967213,0.983606557 C35.1591797,0.983606557 24.5901639,11.5526223 24.5901639,24.5901639 L24.5901639,38.3606557" id="Path" stroke="#0A1F44" stroke-width="3" stroke-linecap="round" stroke-linejoin="round"></path>
                        <path d="M85.5737705,119.016393 L10.8196721,119.016393 C5.38736312,119.016393 0.983606557,114.612637 0.983606557,109.180328 L0.983606557,58.0327869 C0.983606557,52.6004779 5.38736312,48.1967213 10.8196721,48.1967213 L85.5737705,48.1967213 C91.0060795,48.1967213 95.4098361,52.6004779 95.4098361,58.0327869 L95.4098361,109.180328 C95.4098361,111.789015 94.3735393,114.290856 92.5289192,116.135477 C90.684299,117.980097 88.1824573,119.016393 85.5737705,119.016393 L85.5737705,119.016393 Z" id="Path" stroke="#0A1F44" stroke-width="3" stroke-linecap="round" stroke-linejoin="round"></path>
                        <path d="M49.6967213,86.9245697 L49.6967213,90.3114754 C49.6967213,91.1399025 49.0251484,91.8114754 48.1967213,91.8114754 C47.3682942,91.8114754 46.6967213,91.1399025 46.6967213,90.3114754 L46.6967213,86.9245697 C40.0556825,86.1793522 34.8934426,80.544988 34.8934426,73.704918 C34.8934426,66.3577201 40.8495234,60.4016393 48.1967213,60.4016393 C55.5439193,60.4016393 61.5,66.3577201 61.5,73.704918 C61.5,80.544988 56.3377601,86.1793522 49.6967213,86.9245697 Z M48.1967213,84.0081967 C53.887065,84.0081967 58.5,79.3952617 58.5,73.704918 C58.5,68.0145743 53.887065,63.4016393 48.1967213,63.4016393 C42.5063776,63.4016393 37.8934426,68.0145743 37.8934426,73.704918 C37.8934426,79.3952617 42.5063776,84.0081967 48.1967213,84.0081967 Z" id="Combined-Shape" fill="url(#linearGradient-3)" fill-rule="nonzero" opacity="0.200000003"></path>
                        <g id="face" transform="translate(23.000000, 95.000000)">
                            <path d="M22,3 C22,3.07058824 22,3.14117647 22,3.21176471 C22,6.38823529 24.6117647,9 27.7882353,9 C30.9647059,9 33.5764706,6.38823529 33.5764706,3.21176471 C33.5764706,3.14117647 33.5764706,3.07058824 33.5764706,3" id="Path" stroke="#FFFFFF" stroke-width="3" stroke-linecap="round"></path>
                            <circle id="Oval" fill="#FFFFFF" fill-rule="nonzero" cx="3" cy="3" r="3"></circle>
                            <circle id="Oval-Copy" fill="#FFFFFF" fill-rule="nonzero" cx="52" cy="3" r="3"></circle>
                            <path d="M25,6 C25,6.07058824 25,6.14117647 25,6.21176471 C25,9.38823529 27.6117647,12 30.7882353,12 C33.9647059,12 36.5764706,9.38823529 36.5764706,6.21176471 C36.5764706,6.14117647 36.5764706,6.07058824 36.5764706,6" id="Path" stroke="#374759" stroke-width="3" stroke-linecap="round"></path>
                            <circle id="Oval" fill="#0A1F44" fill-rule="nonzero" cx="6" cy="6" r="3"></circle>
                            <circle id="Oval-Copy" fill="#0A1F44" fill-rule="nonzero" cx="55" cy="6" r="3"></circle>
                        </g>
                    </g>
                </g>
            </g>
        </g>
    </g>
</svg>