
<svg width="24px" height="26px" viewBox="0 0 24 26" version="1.1" xmlns="http://www.w3.org/2000/svg" xmlns:xlink="http://www.w3.org/1999/xlink">
    <g fill="#0277E7" stroke="none" stroke-width="1" fill-rule="evenodd">
        <g transform="translate(-648.000000, -726.000000)">
            <g transform="translate(644.000000, 723.000000)">
                <g>
                    <g>
                        <g transform="translate(4.000000, 3.000000)">
                            <path d="M23.8375076,20.6962611 C23.8375076,20.6962611 20.7985212,16.866638 20.7985212,13.0370149 L20.7985212,8.96294771 C20.7985212,4.01284838 16.8599406,3.03106165e-16 12.0014552,0 L12.0014552,0 C7.14296978,-3.03106165e-16 3.20438917,4.01284838 3.20438917,8.96294771 L3.20438917,13.0370149 C3.20438917,16.866638 0.245376058,20.6147797 0.16540273,20.6962611 C-0.0217245672,20.9570312 -0.0524764196,21.3016801 0.0854294031,21.5925558 C0.239054484,21.8471061 0.51190136,22.001546 0.80518935,21.9999626 L23.197721,21.9999626 C23.5134259,22.0030969 23.7988957,21.8091951 23.917481,21.5110745 C24.0516423,21.2473182 24.0202747,20.9277269 23.8375076,20.6962611 Z" ></path>
                            <path d="M9,23 C9.35023904,24.7778559 10.5882684,26.0158222 12,25.9998472 C13.403606,25.9847548 14.6287456,24.7596776 15,23 L9,23 Z" opacity="0.5"></path>
                        </g>
                    </g>
                </g>
            </g>
        </g>
    </g>
</svg>