<svg width="16px" height="14px" viewBox="0 0 16 14" version="1.1" xmlns="http://www.w3.org/2000/svg" xmlns:xlink="http://www.w3.org/1999/xlink">
    <g fill="#0277E7" stroke="none" stroke-width="1" fill-rule="evenodd">
        <g transform="translate(-120.000000, -428.000000)">
            <g transform="translate(120.000000, 425.000000)">
                <g transform="translate(0.000000, 3.000000)">
                    <circle cx="4" cy="10" r="4"></circle>
                    <path d="M12,4 C12,1.790861 10.209139,2.22044605e-16 8,0 C5.790861,-1.11022302e-16 4,1.790861 4,4 C5.47801186,4.00039988 6.90331472,4.54914148 8,5.54 C9.09668528,4.54914148 10.5219881,4.00039988 12,4 L12,4 Z" opacity="0.5"></path>
                    <path d="M12,6 C10.9758934,6.00077957 9.99156091,6.39659013 9.252,7.105 C10.2493885,8.90614198 10.2493885,11.093858 9.252,12.895 C10.5548545,14.1371948 12.5269815,14.3560699 14.0705039,13.4297781 C15.6140263,12.5034863 16.3486478,10.6602493 15.8654068,8.92619166 C15.3821659,7.192134 13.8001243,5.99449633 12,6 L12,6 Z"></path>
                </g>
            </g>
        </g>
    </g>
</svg>