
<svg width="16px" height="16px" viewBox="0 0 16 16" version="1.1" xmlns="http://www.w3.org/2000/svg" xmlns:xlink="http://www.w3.org/1999/xlink">
    <g fill="#0277E7" stroke="none" stroke-width="1" fill-rule="evenodd">
        <g transform="translate(-398.000000, -362.000000)">
            <g transform="translate(398.000000, 362.000000)">
                <g>
                    <path d="M15,2 L13,2 L13,0 L10,0 L10,2 L6,2 L6,0 L3,0 L3,2 L1,2 C0.448,2 0,2.448 0,3 L0,15 C0,15.552 0.448,16 1,16 L15,16 C15.552,16 16,15.552 16,15 L16,3 C16,2.448 15.552,2 15,2 Z M14,14 L2,14 L2,5 L14,5 L14,14 Z" fill-rule="nonzero"></path>
                    <rectopacity="0.5" x="4" y="7" width="2" height="2"></rect>
                    <rectopacity="0.5" x="7" y="7" width="2" height="2"></rect>
                    <rectopacity="0.5" x="4" y="10" width="2" height="2"></rect>
                    <rectopacity="0.5" x="7" y="10" width="2" height="2"></rect>
                    <rectopacity="0.5" x="10" y="7" width="2" height="2"></rect>
                    <rectopacity="0.5" x="10" y="10" width="2" height="2"></rect>
                </g>
            </g>
        </g>
    </g>
</svg>