<svg width="16px" height="16px" viewBox="0 0 16 16" version="1.1" xmlns="http://www.w3.org/2000/svg" xmlns:xlink="http://www.w3.org/1999/xlink">
    <g fill="#0277E7" stroke="none" stroke-width="1" fill-rule="evenodd">
        <g transform="translate(-120.000000, -526.000000)">
            <g transform="translate(120.000000, 524.000000)">
                <g transform="translate(0.000000, 2.000000)">
                    <path d="M4,6 C2.3,6 1,4.7 1,3 C1,1.3 2.3,0 4,0 C5.7,0 7,1.3 7,3 C7,4.7 5.7,6 4,6 Z M4,2 C3.4,2 3,2.4 3,3 C3,3.6 3.4,4 4,4 C4.6,4 5,3.6 5,3 C5,2.4 4.6,2 4,2 Z" opacity="0.5" fill-rule="nonzero"></path>
                    <path d="M12,16 C10.3,16 9,14.7 9,13 C9,11.3 10.3,10 12,10 C13.7,10 15,11.3 15,13 C15,14.7 13.7,16 12,16 Z M12,12 C11.4,12 11,12.4 11,13 C11,13.6 11.4,14 12,14 C12.6,14 13,13.6 13,13 C13,12.4 12.6,12 12,12 Z" opacity="0.5" fill-rule="nonzero"></path>
                    <path d="M1,16 C0.7,16 0.5,15.9 0.3,15.7 C-0.1,15.3 -0.1,14.7 0.3,14.3 L14.3,0.3 C14.7,-0.1 15.3,-0.1 15.7,0.3 C16.1,0.7 16.1,1.3 15.7,1.7 L1.7,15.7 C1.5,15.9 1.3,16 1,16 Z" ></path>
                </g>
            </g>
        </g>
    </g>
</svg>