
<svg width="16px" height="17px" viewBox="0 0 16 17" version="1.1" xmlns="http://www.w3.org/2000/svg" xmlns:xlink="http://www.w3.org/1999/xlink">
    <g fill="#0277E7" stroke="none" stroke-width="1" fill-rule="evenodd">
        <g transform="translate(-398.000000, -553.000000)">
            <g transform="translate(398.000000, 553.000000)">
                <g>
                    <path d="M10.9082293,8.96143732 C10.5153672,10.9794859 8.90813771,12.4663323 7,12.9 L7,15 L10,15 L10,17 L2,17 L2,15 L5,15 L5,12.9 C2.7,12.4 1,10.4 1,8 L1,5 L3.2,5 L2.3,3 L0,3 L0,1 L3.7,1 L5.4,5 L7.02746439,5 C7.10865116,5.7344269 7.36657983,6.41558553 7.75777452,7 L3,7 L3,8.6 C3,9.9254834 4.34314575,11 6,11 C7.65685425,11 9,9.9254834 9,8.6 L9,8.24222548 C9.5599977,8.6170761 10.2088245,8.86956375 10.9082293,8.96143732 Z" ></path>
                    <circle opacity="0.5" fill-rule="nonzero" cx="12" cy="4" r="4"></circle>
                </g>
            </g>
        </g>
    </g>
</svg>