
<svg width="16px" height="16px" viewBox="0 0 16 16" version="1.1" xmlns="http://www.w3.org/2000/svg" xmlns:xlink="http://www.w3.org/1999/xlink">
    <g fill="#0277E7" stroke="none" stroke-width="1" fill-rule="evenodd">
        <g transform="translate(-120.000000, -457.000000)">
            <g transform="translate(120.000000, 457.000000)">
                <g>
                    <path d="M14.9,14 C14.5,11.3 12.5,9 10,8.3 C10,8.2 10,8.1 10,8 C10,6.9 9.1,6 8,6 C6.9,6 6,6.9 6,8 C6,8.1 6,8.2 6,8.3 C3.4,9 1.5,11.3 1.1,14 L0,14 L0,16 L16,16 L16,14 L14.9,14 Z" ></path>
                    <rectopacity="0.5" x="7" y="0" width="2" height="4"></rect>
                    <rectopacity="0.5" x="2" y="2" width="2" height="4"></rect>
                    <rectopacity="0.5" x="12" y="2" width="2" height="4"></rect>
                </g>
            </g>
        </g>
    </g>
</svg>