
<svg width="24px" height="24px" viewBox="0 0 24 24" version="1.1" xmlns="http://www.w3.org/2000/svg" xmlns:xlink="http://www.w3.org/1999/xlink">
    <g fill="#0277E7" stroke="none" stroke-width="1" fill-rule="evenodd">
        <g transform="translate(-897.000000, -578.000000)">
            <g transform="translate(897.000000, 575.000000)">
                <g transform="translate(0.000000, 3.000000)">
                    <path d="M18,24 C21.3137085,24 24,21.3137085 24,18 C24,14.6862915 21.3137085,12 18,12 C14.6862915,12 12,14.6862915 12,18 C12,21.3137085 14.6862915,24 18,24 Z M17,14 L19,14 L19,17 L22,17 L22,19 L17,19 L17,14 Z" opacity="0.5"></path>
                    <path d="M23,3 L18,3 L18,1 C18,0.44771525 17.5522847,3.38176876e-17 17,0 C16.4477153,-3.38176876e-17 16,0.44771525 16,1 L16,3 L8,3 L8,1 C8,0.44771525 7.55228475,3.38176876e-17 7,0 C6.44771525,-3.38176876e-17 6,0.44771525 6,1 L6,3 L1,3 C0.44771525,3 6.76353751e-17,3.44771525 0,4 L0,22 C6.76353751e-17,22.5522847 0.44771525,23 1,23 L10,23 L10,21 L2,21 L2,7 L22,7 L22,11 L24,11 L24,4 C24,3.44771525 23.5522847,3 23,3 Z" ></path>
                </g>
            </g>
        </g>
    </g>
</svg>