
<svg width="16px" height="16px" viewBox="0 0 16 16" version="1.1" xmlns="http://www.w3.org/2000/svg" xmlns:xlink="http://www.w3.org/1999/xlink">
    <g fill="#0277E7" stroke="none" stroke-width="1" fill-rule="evenodd">
        <g transform="translate(-120.000000, -685.000000)">
            <g transform="translate(120.000000, 685.000000)">
                <g >
                    <polygon opacity="0.5" points="5.9 11.5 8 9.4 10.1 11.5 11.5 10.1 9.4 8 11.5 5.9 10.1 4.5 8 6.6 5.9 4.5 4.5 5.9 6.6 8 4.5 10.1"></polygon>
                    <path d="M15,0 L1,0 C0.4,0 0,0.4 0,1 L0,15 C0,15.6 0.4,16 1,16 L15,16 C15.6,16 16,15.6 16,15 L16,1 C16,0.4 15.6,0 15,0 Z M14,14 L2,14 L2,2 L14,2 L14,14 Z" fill-rule="nonzero"></path>
                </g>
            </g>
        </g>
    </g>
</svg>