
<svg width="22px" height="24px" viewBox="0 0 22 24" version="1.1" xmlns="http://www.w3.org/2000/svg" xmlns:xlink="http://www.w3.org/1999/xlink">
    <g fill="#0277E7" stroke="none" stroke-width="1" fill-rule="evenodd">
        <g transform="translate(-897.000000, -378.000000)">
            <g transform="translate(897.000000, 373.000000)">
                <g transform="translate(0.000000, 5.000000)">
                    <path d="M5.5,11 L16.5,11 C19.5,11 22,8.5 22,5.5 C22,2.5 19.5,0 16.5,0 L5.5,0 C2.5,0 0,2.5 0,5.5 C0,8.5 2.5,11 5.5,11 Z M5.5,2 C7.4,2 9,3.6 9,5.5 C9,7.4 7.4,9 5.5,9 C3.6,9 2,7.4 2,5.5 C2,3.6 3.6,2 5.5,2 Z" ></path>
                    <path d="M16.5,13 L5.5,13 C2.5,13 0,15.5 0,18.5 C0,21.5 2.5,24 5.5,24 L16.5,24 C19.5,24 22,21.5 22,18.5 C22,15.5 19.5,13 16.5,13 Z M16.5,22 C14.6,22 13,20.4 13,18.5 C13,16.6 14.6,15 16.5,15 C18.4,15 20,16.6 20,18.5 C20,20.4 18.4,22 16.5,22 Z" opacity="0.5"></path>
                </g>
            </g>
        </g>
    </g>
</svg>